<?xml version="1.0" encoding="UTF-8"?>
<svg id="Calque_1" xmlns="http://www.w3.org/2000/svg" version="1.1" viewBox="0 0 800 800">
  <!-- Generator: Adobe Illustrator 29.8.3, SVG Export Plug-In . SVG Version: 2.1.1 Build 3)  -->
  <defs>
    <style>
      .st0, .st1 {
        fill: none;
      }

      .st1 {
        stroke-width: 15px;
      }

      .st1, .st2 {
        stroke: #a6bfb6;
        stroke-miterlimit: 10;
      }

      .st3, .st2 {
        fill: #a6bfb6;
      }

      .st2 {
        stroke-width: .5px;
      }
    </style>
  </defs>
  <path id="_x35_4" class="st3" d="M486.27,318.82c.18,5.23,19.51,4.39,21.39-.38,5.76-14.64,17.95-38.29,28.07-58.68,1.75-3.52,3.24-7.16,5.06-11.06.23-.38.51-.76.71-1.15,9.79-19.61,19.6-39.22,29.36-58.85,2.07-4.17,3.93-8.44,6.24-12.83.3-.59,8.42-17.33,8.75-17.5,6.4-12.58,12.79-25.19,19.23-37.75,1.96-3.81,4.1-7.55,6.65-11.27,5.05-.03,10.1-.05,15.37.28.42,1.68,1.01,108.97,1.01,205.37,0,1.37.03,2.73,0,4.1-.03,1.49.57,2.25,2.63,2.1,44.19,0,88.38.01,132.57.02.97,0,3.38.82,3.39-3.54.01-92.37.01-184.74.01-277.12,0-4.28-2.18-6.42-6.53-6.42H46.83c-3.28,0-6.55-.01-9.83,0-3.94.02-4.53.63-4.53,4.6v203.67c0,2.28.02,4.55.02,6.83,0,4.01,11.6,2.17,19.56,2.16,17.09-.02,40-.35,57.09-.35,1.92,0,2.76-.27,2.76-4.2,0-14.85,7.41-74.4,7.42-76.6.02-8.37-.02-8.37,7.41-11.91.4-.19.77-.47,1.18-.66,2.81-1.26,5.63-2.51,8.88-3.94-.19,2.25-.34,3.83-.46,5.43-.46,6.5-.83,13.02-1.38,19.52-1.01,12.15-5.65,62.2-6.3,69.27-.17,1.94.69,3.21,2.73,3.23,4.64.05,9.3-.43,13.92,0,3.75.34,3.15-2.49,3.46-4.98.93-7.52,8.56-87.19,9.39-93.88,1.6-12.97.81-9.25,7.66-12.41,12.08-5.58,9.82-7.34,8.05,10.57-.89,8.99-8.93,86.86-9.12,96.78,0,.22.07,3.98,2.27,3.94,4.34-.07,8.69.02,13.03-.07.71-.02,1.41-.66,2.11-1.01l.42-.02c2.1-4.58,1.07-7.02,1.67-14.61.02-.22,7.04-81.46,7.88-91.98.35-4.43.77-8.86,1.1-13.3.19-2.64,1.12-4.51,3.85-5.52,3.98-1.48,7.8-3.34,11.7-5,.61-.25,1.31-.26,1.98-.39.11.68.35,1.37.29,2.03-1.3,15.51-10.19,117.95-11.09,125.67-.3,2.61.3,3.58,2.98,3.62,4.19.05,8.38-.06,12.56-.05,1.97,0,2.82-.74,3-2.86,1.2-13.56,2.62-27.11,3.85-40.67,1.52-16.73,2.95-33.47,4.37-50.2,1.24-14.67,2.43-29.33,3.58-44,.19-2.5,1.04-3.56,3.85-3.56,117.57.07,235.14.06,352.72.05h3.34c-2.45,5.97-5,11.25-8.58,16.28-1,.03-2,.08-3,.08-57.06,0-114.13,0-171.19.01-52.33,0-104.66,0-156.99.06-8.07,0-8.35,19.48-.98,19.48,106.1.02,212.2.02,318.3.03,1.13,0,2.26.11,3.38.17,0,1.24-6.03,14.1-6.87,15.17-.25.32-.52.66-1.27,1-83.03-.13-166.05-.27-249.08-.39-22.13-.03-44.25-.02-66.39,0-3.51,0-4.91,1.23-5.13,2.68-.54,3.67-.93,7.38-1.12,11.09-.28,5.32-.18,5.33,5.22,5.32,101.54,0,203.07-.02,304.61-.03h3.12c-.17.73-.19,1.09-.33,1.39-2.39,4.92-5.49,16.06-11.42,16.02-29.13-.2-58.26-.27-87.4-.45-17.83-.1-35.68-.43-53.51-.48-52.73-.11-105.45-.13-158.18-.18-3.52,0-4.1.65-4.35,4.31-.26,3.71-.62,7.41-.98,11.12-.25,2.59.87,3.98,3.49,4.12,1.18.06,2.37.01,3.55.01,95.89,0,191.79,0,287.68.02,1.1,0,2.21.16,3.29.24-.77,2.01-9.85,15.15-11.09,15.15h-212.86c-23.77,0-47.54,0-71.31.05-7.1.02-5.28,2.59-5.28,10.46,0,1.73.18,3.45.13,5.18-.09,3.04.39,3.44,3.55,3.74,7.3.7,14.69,1,21.86,2.4,7.59,1.48,15.04,3.79,22.41,6.2,4.88,1.6,18.39,9.31,21.2,10.61.4.19.84.34,1.21.58,39.85,24.43,60.47,72.47,62.25,98.13.78,11.24,6.51,114.01-90.64,142.89-6.47,1.92-13.07,3.48-19.69,4.79-4.16.83-8.47.93-12.71,1.34-11.86,1.15-67.12-2.11-95.35-34.29-.12-.14-14.37-15.94-15.31-17.26-3.41-4.76-7.14-9.35-10.17-14.35-7.95-13.15-14.1-27.07-17.89-42.07-2.7-10.68-4.09-21.45-4.62-32.39-.18-3.67-.38-4-4.15-4-16.85-.03-33.69-.05-50.55-.07-4.01,0-8.01.04-12.02-.01-1.98-.03-2.81.83-2.74,2.8.08,2.09.03,4.19.03,6.28v381.43c0,4.12,9.45,4.28,10.61,4.28,187.77.02,375.53.01,563.3.01,48.9,0,97.79,0,146.7-.03,1.24,0,3.55.24,11.49.24,2.99-1.46,2.39-3.69,2.39-5.19.05-105.1.05-210.19.05-315.29,0-.82.07-1.66-.11-2.44-.09-.38-.68-.65-1.54-1.1-2.64-.03-5.28-.07-7.92-.07h-124.87c-2.82,0-4.23,1.42-4.23,4.27,0,8.1-.01,16.2-.01,24.3v43.14c0,3.54-.11,3.6-3.75,3.55-2.82-.04-5.64-.02-8.47-.01-2.96,0-4.44-1.46-4.44-4.38,0-22.57-.02-45.14.05-67.71,0-2.4-.79-3.25-3.14-3.18-3.82.12-7.65.02-11.47.03-2.64,0-3.95,1.29-3.94,3.88v67.71c0,3.27-.48,3.73-3.75,3.74-3.28,0-6.55-.12-9.83.02-2.44.1-3.52-.73-3.47-3.27.1-4.82.02-9.65.02-14.47v-54.07c0-3.38-.15-3.54-3.55-3.56-3.37-.02-6.74,0-10.11,0-3.14,0-4.71,1.54-4.71,4.63v66.89c0,3.54-.26,3.82-3.92,3.84-3.1.02-6.19,0-9.29,0-3.55,0-3.74-.17-3.74-3.68-.01-22.75-.04-45.51.03-68.26,0-2.56-.67-3.47-3.37-3.48-47.5-.22-116.02-.56-120.19-.83-1.1-.07-2.8-.96-3.11-1.85-1.34-4.03-2.31-8.17-3.26-12.31-.11-.5.55-1.51,1.08-1.74.78-.33,1.78-.23,2.68-.23,112.66-.01,225.33-.02,337.99-.03,3.64,0,7.28-.16,10.92-.09,2.43.04,3.19-1.15,3.16-3.35-.05-3.73.01-7.47-.02-11.2-.03-3.42-.63-3.99-3.94-3.98-36.46.13-254.93.61-352.45.75-1,0-2.08.17-2.97-.14-.81-.28-1.76-1-2.06-1.76-.65-1.58-.91-3.31-1.2-5.4-.33-.82-.67-1.64-1.05-2.78-.04-.21-.07-.42,0-1.1-.2-1.12-.57-2.25-.55-3.37.02-.97.47-1.94.92-3.25-.07-.11-.14-.21.25-.24,1.78-.04,3.56-.08,5.53.29.54.07,1.07.2,1.6.2,26.28.05,257.32,6.3,354.36.19,1.82-.11,1.84-1.43,1.84-2.75v-11.2c0-4.82-.25-5.09-5.08-5.09-50.74,0-256.42.61-364.91,0-.52-.79-1.03-1.57-1.6-2.72-.05-.36-.11-.74-.06-1.51-.31-.66-.64-1.31-.99-2.37-.08-.53-.16-1.05-.12-1.98-.31-.66-.64-1.31-.99-2.3-.03-.22-.05-.43.01-1.11-.03-1.7-.05-3.4.43-5.12,12.62,0,341.02-.84,369.01,1.12,4.7.33,4.2-1.86,4.21-2.23.05-4.98.26-10.55.51-14.94.03-.48.63-3.44-5.81-3.21-122.28,4.54-244.74.84-367.1.84h-6.09c.48-1.26.69-2.01,1.03-2.7,7.55-14.91,36.24-75.89,43.65-87.26,4.19-6.43,5.29-6.9,10.58-6.21,2.98.38,6.05.07,9.77.07-3.23,6.23-11.76,22.55-17.01,31.58-1.31,2.26-2.68,4.48-3.92,6.77-6.89,12.75-13.73,25.52-20.65,38.25-1.52,2.79-1.28,3.51,1.86,3.56,4.64.08,9.28.06,13.92,0,1.77-.02,3.09-.54,4.07-2.47,6.57-13.02,13.35-25.94,20.04-38.9,5.12-9.93,10.19-19.89,15.3-29.81,2.41-4.68,6.28-7.02,11.61-7.01h8.88c-1.76,3.74-3.23,6.87-4.91,10.32-1.21,2.18-2.51,4.34-3.61,6.57-2.48,5.03-8.24,16.31-10.5,20.8-.88,1.74-1.74,3.49-2.63,5.22-5.44,10.54-10.89,21.07-16.34,31.6-1.34,2.58-.99,3.26,1.8,3.29,4.45.04,8.89-.01,13.34-.01,3.39,0,3.76-1.83,3.96-2.21,4.02-8.03,8.04-16.06,12-24.12,1.92-3.91,3.69-7.91,5.89-12.02.23-.71.47-1.42,1.02-2.3,5.72-11.48,11.47-22.94,17.13-34.44,1.06-2.16,2.3-3.41,4.95-3.24,3.44.23,6.9.05,10.36.05s3.55.02,2.26,3.4c-.18.48-2.6,4.95-3.37,6.49-8.2,16.53-17.43,32.59-24.57,49.6M13.46,437.8c0-138.97,0-277.66.01-416.36,0-1.64.01-3.28,0-4.92,0-1.74.67-2.77,2.59-2.66,1,.06,2,0,3,0h763.63c3.71,0,3.83.08,3.84,3.84.02,7.83,0,15.66,0,23.48v737.99c0,4.65-2.27,6.97-6.8,6.98H17.47c-3.63,0-4.02-.39-4.02-4.06v-344.28h0ZM294.09,280.65c-.69-.45-10.92-4.89-19.56-7.59s-17.83-5.28-27.06-6.44c-5.21-.66-10.55-.53-15.82-.53-43.25.01-86.52.07-129.77.13-21.22.03-42.43.1-63.66.15-3.49,0-5.24,1.71-5.23,5.12v8.19c0,4.97.11,5.07,5.06,5.07,65.48,0,130.95.04,196.44-.04,9.78-.01,19.44.99,28.77,3.73,15.37,4.52,29.14,12.14,40.65,23.38,10.78,10.53,24.27,27.16,29.87,58.92,1.49,8.45,1.28,16.96.13,25.42-.81,5.95-17.19,81.22-91.7,85.92-37.74,2.38-79.97-24.46-95.17-55.33-5.35-10.87-8.72-22.39-9.39-34.56-.31-5.71-.47-11.43-.58-17.15-.04-2.06-.84-2.95-2.93-2.92-4.28.07-8.56.06-12.84,0-2.18-.03-3.01.83-3.05,3.09-.26,15.52,1.37,30.7,6.31,45.54,4.6,13.78,11.53,26.22,20.64,37.39,9.26,11.35,20.46,20.55,33.27,27.75,1.66.93,17.53,9.86,35.08,12.79,10.08,1.68,20.26,2.81,30.61,1.8,11.16-1.08,22.03-2.96,32.54-6.94,10.25-3.88,19.7-8.08,28.6-14.5,26.31-18.98,31.9-34.28,33.78-38.38,21.13-45.91,21.44-86.36-13.99-133.9-1.58-2.11-21.22-19.78-31.02-26.11h.03ZM185.64,422.14c-8.79-10.43-12.54-23.29-12.91-36.87-.09-3.46-.08-6.92-.03-10.37.03-2.01-.74-3.09-2.86-3.08-4.37.03-8.74.01-13.11,0-2.52,0-3.61,1.2-3.44,3.74.31,4.61.59,9.23.78,13.85.48,11.4,3.71,21.99,8.9,32.1,6.37,12.42,15.46,22.48,26.94,30.2,11.41,7.69,24.03,12.39,37.88,13.69,9.33.87,18.58.48,27.59-1.79,9.39-2.36,18.32-6.13,26.34-11.7,6.24-4.34,12.1-9.12,17.06-15.34.36-.47,10.47-16.42,13.39-22.74,3.58-7.76,5.31-16.13,5.82-24.67.77-12.84-1.21-25.2-6.22-37.16-6.32-15.1-16.28-27.19-29.63-36.39-14.76-10.17-31.34-14.39-49.22-14.33-40.24.14-80.49.04-120.73.04H37.09c-3.72,0-4.12.4-4.13,4.05v10.1c0,4.43,0,4.45,4.56,4.45,64.65,0,129.28.03,193.93,0,6.46,0,12.83.46,19.15,1.94,10.61,2.49,19.94,7.35,27.95,14.65,8.65,7.87,14.79,17.38,18.06,28.69,2.37,8.18,3.57,16.45,2.25,24.97-1.81,11.62-10.92,29.29-11.03,29.44-41.78,58.14-89.72,17.34-102.18,2.56h0ZM200.34,413.58c6.71,7.85,15.06,13.09,25.09,15.39,11.44,2.63,22.49,1.13,32.8-4.5,4.95-2.7,9.72-5.79,13.18-10.93,5.66-5.95,8.99-13.22,10.35-21.11,1.77-10.27.73-20.41-4.15-29.89-5.09-9.89-12.8-17.14-22.83-21.79-7.04-3.27-14.67-4.13-22.32-4.14-64.82-.06-129.64-.04-194.46-.04-.73,0-1.47-.06-2.18.05-1.81.28-2.9,1.08-2.82,3.24.14,3.81.02,7.64.03,11.46,0,3.85.42,4.27,4.21,4.27h149.12c16.93,0,33.87.06,50.8.1,7.35.02,13.62,2.83,18.66,8,7.79,7.98,10.31,17.54,6.81,28.19-1.26,3.84-3.75,7.27-6.05,11-8.04,7.48-17.21,10.67-28.14,7.66-11.84-3.27-20.04-13.64-20.62-25.91-.15-3.27-.11-6.54-.05-9.81.03-1.86-.78-2.67-2.59-2.66-4.46,0-8.91.02-13.37-.03-1.99-.03-2.23.9-2.68,2.81-4.16,17.56,4.7,31.01,11.23,38.65ZM611.74,251.85c.01-49.24-.4-104.66-.65-106.34l-.79.02c-4.13,8.27-7.94,16.72-12.48,24.75-3.32,5.86-4.3,11.8-4.18,18.39.27,15.19.08,30.4.08,45.59v81.36c0,2.78,1.43,4.17,4.3,4.18,3.28,0,6.55,0,9.83-.02,3.88,0,3.89-.02,3.89-4.05v-63.89h-.01ZM576.16,261.68v-45.08c-.26-.05-.53-.09-.78-.14-.6.82-8.65,16.06-14.33,27.56-1.02,2.06-2.37,4.31-2.38,6.48-.18,22.19-.11,44.39-.15,66.59,0,1.98.73,2.78,2.73,2.73,3.82-.09,7.66-.21,11.46.03,2.85.18,3.52-.89,3.5-3.58-.1-18.02-.05-36.02-.05-54.58h0ZM233.89,394.26c6.94.72,11.64-2.52,12.95-8.41,1.19-5.42-2.14-11.66-7.77-12.71-4.14-.77-8.46-.6-12.69-.65-1.81-.02-1.57,6.03-1.42,9.84.45,11.1,8.58,11.89,8.94,11.93h-.01ZM527.53,310.34c-1.41,2.99-2.81,5.99-4.53,9.65,5.71,0,10.42-.1,15.12.04,2.42.07,3.15-.82,3.12-3.17-.11-9.26.4-18.53-.08-27.78-.18-3.48-1.01-3.02-1.36-3.13-2.34-.88-8.02,16.03-12.27,24.38h0Z"/>
  <g>
    <rect class="st0" x="157.77" y="575.05" width="534.09" height="132.46"/>
    <path class="st2" d="M255.65,646.06c0,8-.88,14.98-2.63,20.93-1.75,5.95-4.63,10.9-8.63,14.85-3.8,3.75-8.25,6.49-13.33,8.22-5.09,1.73-11.02,2.59-17.78,2.59s-12.94-.91-18.08-2.74-9.46-4.52-12.97-8.07c-4.01-4.05-6.88-8.94-8.63-14.67s-2.63-12.77-2.63-21.11v-66.01h14.67v66.75c0,5.98.4,10.69,1.22,14.15.82,3.46,2.18,6.6,4.11,9.41,2.17,3.21,5.12,5.63,8.85,7.26s8.21,2.45,13.44,2.45,9.78-.8,13.48-2.41,6.67-4.04,8.89-7.29c1.92-2.81,3.3-6.04,4.11-9.67.82-3.63,1.22-8.13,1.22-13.52v-67.12h14.67v66.01h.01Z"/>
    <path class="st2" d="M353.44,690.37h-69.79v-110.32h14.67v97.28h55.12v13.04Z"/>
    <path class="st2" d="M434.19,593.09h-39.41v97.28h-14.67v-97.28h-39.41v-13.04h93.5v13.04h-.01Z"/>
    <path class="st2" d="M540.28,690.37h-19.04l-36.89-43.86h-20.67v43.86h-14.67v-110.32h30.89c6.67,0,12.22.43,16.67,1.29s8.45,2.41,12.01,4.63c4.01,2.52,7.12,5.69,9.38,9.52,2.25,3.83,3.37,8.68,3.37,14.56,0,7.95-2,14.61-6,19.97-4.01,5.36-9.51,9.4-16.52,12.12l41.49,48.23h-.03ZM505.98,611.09c0-3.16-.56-5.97-1.67-8.41-1.11-2.45-2.95-4.51-5.52-6.19-2.12-1.44-4.64-2.43-7.56-3-2.91-.57-6.34-.85-10.3-.85h-17.27v41.63h14.82c4.64,0,8.69-.4,12.15-1.22s6.39-2.34,8.82-4.55c2.23-2.07,3.86-4.46,4.93-7.15s1.6-6.11,1.6-10.26h0Z"/>
    <path class="st2" d="M641.48,690.37h-15.63l-10.81-30.75h-47.71l-10.81,30.75h-14.89l40.16-110.32h19.56l40.16,110.32h-.02ZM610.52,647.02l-19.34-54.16-19.41,54.16h38.75Z"/>
  </g>
  <line id="trait" class="st1" x1="653.91" y1="707.5" x2="155.38" y2="707.5"/>
</svg>