<?xml version="1.0" encoding="UTF-8"?>
<svg id="Calque_1" xmlns="http://www.w3.org/2000/svg" version="1.1" viewBox="0 0 977.63 800">
  <!-- Generator: Adobe Illustrator 29.8.3, SVG Export Plug-In . SVG Version: 2.1.1 Build 3)  -->
  <defs>
    <style>
      .st0 {
        fill: #2b2d42;
        fill-rule: evenodd;
      }
    </style>
  </defs>
  <path class="st0" d="M488.81,627.11c-256.09,0-462.61-102.42-462.61-227.11s206.52-227.11,462.61-227.11,462.61,104.65,462.61,227.11-206.52,227.11-462.61,227.11ZM488.81,166.21c-258.16,0-468.81,102.42-468.81,233.79s210.65,233.79,468.81,233.79,468.81-100.2,468.81-233.79-210.65-233.79-468.81-233.79h0ZM459.9,495.74h12.39v-4.45h-8.26v-2.23h8.26v-4.46h-8.26v-2.23h8.26v-4.45h-12.39v17.8h0ZM490.88,495.74v-8.91h-6.19v2.24h2.06c0,2.23-2.06,2.23-2.06,2.23-4.13,0-4.13-2.23-4.13-4.46s0-4.45,2.06-4.45,2.06,0,4.13,2.23h4.13c0-4.45-4.13-6.67-8.26-6.67s-8.26,4.45-8.26,8.9c0,6.68,4.13,8.91,8.26,8.91,2.06,0,4.13,0,4.13-2.23l2.06,2.23h2.06s0-.01,0-.01ZM495.01,495.74h4.13v-4.45h-4.13v4.45ZM509.47,477.94v11.14c0,4.45,4.12,6.67,8.25,6.67,6.2,0,8.26-2.23,8.26-6.67v-11.14h-6.19v11.14q0,2.23-2.08,2.23t-2.06-2.23v-11.14h-6.19,0ZM528.05,495.74h6.2v-4.45h-6.2v4.45ZM544.58,484.61h6.2c-2.08-4.45-4.13-6.67-8.26-6.67s-6.2,2.23-6.2,6.67c0,6.68,8.26,4.46,8.26,6.68h-8.26c0,2.23,2.06,4.45,6.2,4.45s8.26,0,8.26-4.45c0-6.68-10.33-6.68-10.33-8.91h4.13v2.23h0ZM552.84,495.74h4.12v-4.45h-4.12v4.45ZM567.29,495.74h6.2v-4.45h2.06c4.12,0,8.26-2.23,8.26-6.68s-4.13-6.67-8.26-6.67h-8.26v17.8h0ZM583.82,495.74h4.12l2.06-2.23h4.13l2.06,2.23h4.12l-6.19-17.81h-4.13l-6.19,17.81ZM600.33,477.94v4.45h6.2v13.36h4.12v-13.36h6.2v-4.45h-16.52ZM618.93,495.74h4.13v-4.45h-4.13v4.45ZM649.9,486.84c0-4.45-2.06-8.9-8.26-8.9-4.12,0-8.25,4.45-8.25,8.9,0,6.68,4.12,8.91,8.25,8.91,6.2,0,8.26-2.23,8.26-8.91ZM654.04,495.74h4.12v-6.67h6.2v-2.24h-6.2v-4.45h8.26v-4.45h-12.39v17.8h0ZM668.49,495.74h6.2v-6.67h4.12v-2.24h-4.12v-4.45h6.19v-4.45h-12.39v17.8h0ZM682.95,495.74h6.2v-4.45h-6.2v4.45ZM389.68,413.36c28.92-40.08,12.39-22.27,22.72-33.4h-28.91l-2.06,4.45c-22.72-8.91-49.57-20.04-103.26,44.53-16.52,22.27-33.05,26.72-47.5,35.62-39.24,17.82-47.5-24.49-6.2-77.93,78.48-102.42,109.46-82.38,95.01-55.67-12.39,24.49-35.11,48.99-45.44,53.44-4.13,11.14,37.17,13.36,84.68-40.08h-8.26c8.26-31.17,10.32-77.93-74.35-53.44-30.98,8.9-101.19,69.02-117.72,131.37-6.2,28.94,4.13,124.69,123.92,33.4,4.13,20.03,37.17,13.36,61.96-11.14-10.33,24.49,18.59,31.16,45.43,11.14l-39.23,53.43h26.85l43.37-62.34c0,13.36,8.26,33.4,72.28,0-4.13,20.04,22.72,31.17,64.02,0-6.19,15.58,12.39,33.4,61.96,0-6.19,22.27,30.98,40.07,78.48-15.59q2.06-2.23,8.26-2.23c4.12,2.23-8.26,37.86,22.72,37.86,22.72,0,37.18-11.14,47.49-20.04l6.2-31.17c-14.45,13.36-26.85,20.04-30.98,22.27-8.26,0-18.59,4.45-14.45-26.72,18.58-20.05,66.09-46.76,72.28-104.65,4.12-24.49-57.83-4.45-90.87,80.16-2.06,6.68-4.13,15.59-10.33,22.28-6.2,4.45-4.13-6.68-4.13-20.05,0-11.14-28.91-24.5-55.76-2.23-24.78,20.04-24.78,33.4-35.1,46.76-12.4,6.67-47.5,22.27-2.08-40.08h16.53l14.45-15.58h-20.65l26.85-35.63h-30.98l-24.78,35.63h-18.59l-14.46,17.81h18.59c-12.39,33.4-103.26,91.29-12.39-17.81h-28.92c-28.92,42.3-66.09,69.02-45.43,42.3,26.85-33.4,12.39-53.43-20.65-37.85v-4.45h-24.79c-6.19,6.68-33.05,42.3-45.43,51.21-12.38,11.14-39.23,22.27-10.32-15.58h0ZM424.79,355.47c-2.06,2.23-4.13,2.23-4.13,4.45v11.14l4.13-15.59ZM435.12,353.25c-2.06,0-4.13,0-4.13,2.23v11.14l4.13-13.36ZM449.58,348.79c-4.13,0-4.13,2.23-4.13,4.45v11.13l4.13-15.58ZM464.03,346.56q-4.13,0-4.13,4.45v11.14l4.13-15.59ZM480.56,344.34c-4.13,0-4.13,2.23-4.13,4.45v11.14l4.13-15.59ZM497.07,344.34c-4.12-2.23-6.19,0-6.19,2.23v11.14l6.19-13.36ZM513.6,344.34q-4.12,0-4.12,4.45v8.9l4.12-13.36ZM530.12,344.34q-4.13,0-4.13,4.45v8.9l4.13-13.36ZM546.64,346.56q-6.19,0-6.19,2.23v8.9l6.19-11.13ZM559.03,348.79q-4.12-2.23-4.12,2.23v11.14l4.12-13.36ZM573.49,351.02q-4.13,0-4.13,2.23v11.13l4.13-13.36ZM583.82,355.47q-4.13,0-4.13,2.23v8.9l4.13-11.13ZM563.16,233.01l-4.13,8.91,8.26-2.23,6.2,4.45-2.06-8.9,8.25-4.45-8.25-2.23-2.08-8.91-4.12,8.91-8.26-2.23,6.2,6.67h0ZM639.58,255.28l-4.12,6.68,8.26-2.23,4.12,6.68,2.06-8.91,6.2-2.23-6.2-2.23v-8.9l-6.19,6.68-8.26-4.45,4.12,8.9h0ZM420.66,235.24l-2.06,8.9,6.19-6.68,8.26,2.23-4.13-6.68,4.13-6.68-8.26,2.23-4.13-8.91v8.91l-8.26,2.23,8.26,4.46h0ZM594.14,357.7c0,2.23,2.06,2.23,2.06-2.23q0-2.23,2.06-4.45c2.06-6.68-4.12-6.68-6.19-11.14v-2.23c0-6.68-10.33-8.9-10.33-8.9,0-2.23-2.08-6.68-2.08-6.68-2.06-4.45-4.12-6.68-8.25-8.91q-2.08-4.45-4.13-8.9c-4.12-8.9-12.39-22.27-35.1-33.4-6.2-2.23-6.2,0-8.26-4.45q-4.12-4.45-8.26-6.68c-2.06-2.23-4.12-2.23-4.12-4.45v-20.04c0-2.23,2.06-4.45,0-6.68-2.06-2.23-2.06-6.68-4.13-8.91-2.06-2.23-2.06-4.45-4.12-6.68s-6.2-2.23-6.2-4.45v-15.58c0-2.23-2.06-2.23-2.06,0v15.58c0,2.23-4.13,2.23-6.19,4.45s-2.06,4.45-2.06,6.68h-2.06c-2.06,2.23-2.06,4.45-4.13,6.68,0,2.23,2.06,4.45,2.06,6.68v24.49c-6.2,2.23-10.33,4.45-12.39,8.91q0,2.23-2.06,4.45c-8.26,2.23-20.66,8.9-35.11,28.94-4.13,6.68-6.2,11.14-6.2,17.81-4.13,2.23-8.26,6.68-8.26,11.14-2.06,2.23,0,2.23-2.06,4.45-2.07,2.23-6.2,4.45-8.26,8.9,2.06,4.45-4.13,6.68-4.13,8.91v4.45c0,2.23,2.06,2.23,2.06,2.23,2.06,2.23,2.06,11.14,2.06,17.81h2.06q2.06,0,2.06-4.45v-15.59c4.13,0,6.2-2.23,10.33-4.45h2.06c14.46-4.45,30.98-8.91,45.44-8.91,26.85-4.45,57.82-2.23,86.74,0,8.26,2.23,12.39,2.23,18.59,4.45,2.06,2.23,8.26,4.45,12.39,4.45,0,0,2.06,2.23,4.13,2.23,2.06,2.23,2.06,4.46,2.06,4.46h0ZM309.14,567l-10.33-15.59c4.13,0,8.26-4.45,8.26-11.14s-6.2-11.14-14.46-11.14h-14.45v37.86h10.33v-13.37l8.26,13.37h12.39s0,0,0,0ZM356.64,538.05h12.39v-8.91h-22.72v37.86h22.72v-8.91h-12.39v-4.46h10.33v-8.9h-10.33v-6.68h0ZM435.12,542.5v-11.14c-2.06-2.23-6.19-2.23-8.26-2.23-6.19,0-12.39,2.23-16.52,4.46-2.06,4.45-4.13,8.9-4.13,15.58,0,4.45,2.06,8.91,6.19,13.36,4.13,4.46,8.26,6.68,14.46,6.68,2.06,0,4.13-2.23,8.26-2.23v-11.14c-2.06,2.23-6.19,2.23-8.26,2.23-6.19,0-10.32-2.23-10.32-8.91s4.13-11.14,10.32-11.14c2.06.02,6.19,2.24,8.26,4.46h0ZM515.66,546.96c0-11.14-10.33-17.82-20.65-17.82-12.39,0-22.72,6.68-22.72,17.82,0,13.36,10.33,22.27,22.72,22.27s20.65-8.91,20.65-22.27ZM585.88,567l-12.39-15.59c6.19,0,8.26-4.45,8.26-11.14s-6.2-11.14-12.4-11.14h-16.52v37.86h10.33v-13.37l10.33,13.37h12.38s0,0,0,0ZM620.98,529.14v37.86h14.46c12.39,0,20.65-6.68,20.65-17.82s-8.26-20.04-20.65-20.04h-14.46ZM713.92,540.28l6.2-8.91c-4.12-2.23-8.26-2.23-12.39-2.23-8.26,0-14.46,4.46-14.46,11.14,0,8.91,4.13,11.14,10.33,11.14,2.08,2.23,6.2,2.23,6.2,4.46s-2.06,4.45-4.12,4.45c-4.13,0-6.2-2.23-8.26-4.45l-6.2,8.9c4.13,2.24,10.33,4.46,14.46,4.46s8.25-2.23,10.33-4.46c4.12-2.23,4.12-6.67,4.12-8.9,0-6.68-4.12-8.91-8.26-11.14h-4.12c0-2.24-4.13-2.24-4.13-4.46s2.08-4.45,4.13-4.45c4.12,0,6.18,2.22,6.18,4.45h0ZM340.12,257.5v8.91l6.19-6.68,8.26,2.23-6.19-8.91,4.13-6.68-8.26,2.23-6.2-6.68,2.07,8.9-8.26,4.45,8.26,2.23h0ZM445.45,489.07h2.06c4.13,0,4.13,2.23,4.13,4.45v2.23h4.13v-4.45q0-2.23-2.06-4.46c2.06,0,2.06-2.23,2.06-2.23,0-4.45-2.06-6.67-6.19-6.67h-8.26v17.81h4.13v-6.68h0ZM513.6,266.41c-4.12,0-12.39-2.23-16.53-2.23-6.19,0-8.26,0-12.39,2.23-4.13,0-4.13,2.23-8.26,2.23,0,0-2.06,0,0-2.23,4.13-4.45,10.33-6.68,20.65-6.68s10.33,2.23,14.46,2.23c2.06,2.23,4.12,2.23,4.12,4.45,2.07,0,0,0-2.06,0ZM501.21,295.35v-22.27c0-2.23-4.13-6.68,0-4.45,0,2.23,2.06,4.45,4.12,6.68,4.13,8.91,4.13,13.36,6.2,22.27,0,0,2.06,2.23,0,4.45h-8.26c-2.06,0-2.06-2.23-2.06-6.68ZM505.34,268.64q2.06,0,4.13,2.23,2.06,2.23,6.19,4.45,0,2.23,2.06,4.45c6.2,6.68,6.2,13.36,10.33,20.04q0,2.23-2.06,2.23c-4.12,2.23-4.12,0-8.26,0,0,0,0-4.45-2.06-6.68-2.06-8.91-4.12-17.81-8.26-24.49l-2.06-2.23h0ZM492.94,270.86c2.06,0,2.06-4.45,2.06,0v31.17h-8.26c-2.06,0,0-2.23-2.06-2.23,0,0,4.13-13.36,6.19-22.27,2.06-2.23,0-2.23,2.06-6.68h0ZM488.81,270.86q2.06,0,0,2.23c-2.06,2.23-2.06,6.68-4.13,11.14-2.06,6.68-2.06,11.14-4.13,17.81q-2.06,2.23-4.13,2.23h-6.19v-2.23c0-2.23,2.06-4.45,2.06-8.9,2.06-2.23,2.06-4.45,4.13-6.68,2.06-2.23,2.06-4.45,4.13-6.68l4.13-4.45,4.13-4.46h0ZM519.8,273.09c4.12,2.23,6.19,4.45,8.25,6.68,6.2,6.68,8.26,11.14,12.4,20.04,2.06,2.23,2.06,4.45,0,4.45h-4.13s-2.06,0-4.12-2.23c0-2.23-4.13-11.14-6.2-17.81-4.12-8.91-12.39-11.14-10.33-13.36,2.06,0,4.13,2.23,4.13,2.23h0ZM480.56,273.09s4.13-2.23,2.06-2.23c0,2.23-4.13,6.68-4.13,6.68-4.13,4.45-8.26,8.9-10.32,13.36-2.07,4.45-4.13,8.9-4.13,13.36,0,0,0,2.23-2.06,2.23-4.13,0-6.2,2.23-6.2-2.23,2.06-6.68,6.2-11.14,10.33-15.59,2.07-4.45,4.13-6.68,6.2-8.9l2.06-2.23q2.05-2.23,6.19-4.46ZM435.12,306.49c2.06-6.68,14.46-22.27,24.79-26.72,2.06-2.23,4.13-4.45,6.19-4.45s-2.06,2.23-4.13,2.23l-2.06,2.23c-10.33,6.68-14.46,15.59-18.59,24.49-2.06,2.23-2.06,6.68-4.13,8.9-2.06,0-4.13,2.23-4.13,0s2.06-4.45,2.06-6.67ZM468.16,277.54c2.06,0,6.19-4.45,4.13-2.23l-8.26,8.91c-10.33,11.14-12.39,20.04-12.39,22.27-2.06,2.23-4.13,2.23-6.2,2.23s0-2.23,0-4.45c2.06-2.23,2.06-4.45,4.13-6.68,2.06-4.45,4.13-8.91,8.26-11.14s4.13-4.45,6.2-6.68c2.07,0,4.13-2.23,4.13-2.23h0ZM536.31,281.99c-2.06-2.23-8.26-4.45-6.19-6.68,0,0,4.12,2.23,6.19,4.45,8.26,6.68,12.39,15.59,16.53,26.72h-6.2c0-4.45,0-6.68-2.06-11.14-2.06-4.45-4.12-6.68-6.2-8.91l-2.06-4.45h0ZM544.58,284.22c2.06,0,2.06,2.23,4.12,2.23,8.26,8.91,10.33,11.14,14.46,20.04v2.23h-4.13l-2.06-2.23c-2.06-4.45-4.12-11.14-6.19-13.36-2.07-2.23-4.13-6.68-6.2-8.9h0ZM490.88,217.42s2.06-2.23,6.19-2.23c2.08,0,4.13,2.23,4.13,2.23v2.23c-4.13-2.23-6.2-2.23-10.33,0v-2.23h0ZM486.75,221.88c4.13,0,12.4-2.23,16.52,0,2.06,0,4.12,2.23,2.06,2.23h-18.59c-2.06,0,0-2.23,0-2.23ZM505.34,228.56h-20.65l2.06-2.23c6.19-2.23,14.46,0,18.59,2.23h2.06c0,2.23-2.06,0-2.06,0ZM492.94,257.5v-26.72c2.06,0,2.06,2.23,2.06,2.23v22.27s0,2.23-2.06,2.23ZM501.21,257.5c-2.06,0-2.06-2.23-2.06-2.23v-22.27s0-2.23,2.06-2.23v26.72h0ZM486.75,257.5l-2.06-2.23v-20.04c0-2.23,2.06-2.23,2.06-2.23q2.06,0,2.06,2.23v20.04s0,2.23-2.06,2.23ZM505.34,257.5v-24.49q2.06,0,2.06,2.23v20.04s0,2.23-2.06,2.23ZM499.14,319.85c12.39,0,35.1,0,53.69,4.45,12.39,0,28.92,4.45,30.98,8.91,4.12,6.68-16.53-4.45-28.92-6.68-33.04-4.45-66.09-4.45-90.87,0-18.59,2.23-26.85,4.45-45.44,13.36-4.13,2.23,0-6.68,16.52-11.14,22.72-6.67,47.51-8.9,64.03-8.9h0ZM587.94,346.56c-4.12-2.23-12.39-6.68-18.59-6.68-12.39-4.45-22.72-4.45-41.3-6.68-24.78,0-37.17-2.23-59.89,2.23-20.66,2.23-35.11,4.45-49.57,13.36-8.26,4.45-4.13-2.23-4.13-2.23,6.2-2.23,10.33-6.68,30.98-11.14,14.46-2.23,39.24-6.68,51.63-6.68s33.05,0,55.77,4.45c10.33,2.23,30.98,4.45,37.17,11.13,0,0,2.06,4.46-2.07,2.23h0ZM445.45,486.84v-4.45h4.13s2.06,0,2.06,2.23l-2.06,2.23h-4.13ZM288.49,546.96v-11.14c4.13,0,8.26,2.23,8.26,6.67s-4.13,4.46-8.26,4.46h0ZM592.08,484.61l2.06,4.46h-4.13l2.07-4.46ZM639.58,486.84c0-2.23,0-4.45,2.06-4.45s4.13,2.23,4.13,4.45-2.06,4.46-4.13,4.46-2.06-2.23-2.06-4.46ZM575.56,486.84h-2.06v-4.45h2.06s2.06,0,2.06,2.23,0,2.22-2.06,2.22ZM482.62,546.96c0-4.46,6.19-8.91,12.39-8.91s10.33,4.45,10.33,8.91c0,6.67-4.12,13.36-10.33,13.36s-12.39-6.68-12.39-13.36ZM459.9,424.5c-10.33,11.14-18.59,11.14-22.72,11.14-2.06-2.23-2.06-8.91,12.39-22.27,10.33-11.14,20.65-17.81,22.72-15.59,4.13,4.45-2.06,15.58-12.39,26.72h0ZM563.16,546.96v-11.14h2.06c2.06,0,6.2,2.23,6.2,6.67s-4.13,4.46-6.2,4.46h-2.06s0,0,0,0ZM647.84,435.63c2.06-17.82,10.33-26.72,22.72-33.4-2.06,17.81-2.06,20.04,4.13,22.27-6.2,8.92-26.85,28.94-26.85,11.14h0ZM631.31,558.09v-20.04h4.13c6.19,0,10.33,4.45,10.33,11.14s-6.2,8.91-12.39,8.91h-2.08ZM346.31,422.27c-16.52,13.36-26.85,20.03-30.98,17.81-2.06-2.23,4.13-15.58,18.59-28.94,10.33-8.91,33.05-20.05,35.11-15.59,2.07,4.45-6.19,11.12-22.72,26.72ZM777.95,330.98c22.72-24.49,14.45-2.23-4.13,22.27-10.33,15.58-12.39,17.81-22.72,26.72-12.39,13.36,8.26-28.94,26.85-48.99h0ZM497.07,308.71c12.4-2.23,37.18,0,53.7,2.23,12.39,2.23,18.58,4.45,22.72,8.9,4.12,6.68-10.33,0-22.72-2.23-24.79-4.45-53.7-6.68-86.74,0-20.65,2.23-30.98,6.68-35.11,11.14-6.19,2.23-4.13-6.68,14.46-13.36,14.45-4.45,41.3-6.68,53.69-6.68h0Z"/>
</svg>