<?xml version="1.0" encoding="UTF-8"?>
<svg id="Calque_1" xmlns="http://www.w3.org/2000/svg" version="1.1" viewBox="0 0 64 64">
  <!-- Generator: Adobe Illustrator 29.8.3, SVG Export Plug-In . SVG Version: 2.1.1 Build 3)  -->
  <defs>
    <style>
      .st0, .st1, .st2, .st3, .st4 {
        stroke-miterlimit: 10;
      }

      .st0, .st2 {
        stroke: #2b2d42;
      }

      .st0, .st5 {
        fill: #595a78;
      }

      .st1 {
        fill: #118ab5;
      }

      .st1, .st3 {
        stroke: #000;
      }

      .st2, .st6, .st4 {
        fill: #3c3d51;
      }

      .st3 {
        fill: #fff;
      }

      .st7 {
        fill: #2b2d42;
      }

      .st4 {
        stroke: #595a78;
      }
    </style>
  </defs>
  <path class="st5" d="M40.34,5.05h0s0,0,0,0l-8.34,27.03L4.83,23.71c-4.61,14.93,3.83,30.79,18.83,35.42,15.01,4.63,30.91-3.72,35.51-18.65,4.61-14.93-3.83-30.79-18.83-35.42Z"/>
  <path class="st6" d="M42.06,37.77c-3.34,5.67-10.55,7.72-16.11,4.58-5.55-3.14-7.35-10.28-4-15.95s10.55-7.72,16.11-4.58,7.35,10.28,4,15.95Z"/>
  <polygon class="st7" points="37.78 23.71 22.69 31.04 35.53 40.34 37.78 23.71"/>
  <path class="st1" d="M20.37,27.83l-3.2-.99"/>
  <path class="st3" d="M36.04,16.89l-.99,3.2"/>
  <path class="st2" d="M14.7,13.15c6.84-6.3,16.13-8.25,24.34-5.94l.73-2.36C25.08.31,9.51,8.46,4.98,23.06l2.72.84c1.33-3.97,3.67-7.68,7-10.75Z"/>
  <path class="st2" d="M14.52,12.87c-3.37,3.12-5.75,6.91-7.1,10.94l3.34,1.03c1.07-3.57,3.08-6.91,6-9.63,5.91-5.49,14.07-7.03,21.27-4.74l1.14-3.69c-8.3-2.34-17.72-.34-24.65,6.08Z"/>
  <path class="st2" d="M19.03,17.69c5-4.65,11.91-5.94,18-4.01l.99-3.21c-7.2-2.29-15.36-.75-21.27,4.74-2.92,2.71-4.92,6.05-6,9.63l3.21.99c.91-3.02,2.6-5.85,5.07-8.15Z"/>
  <path class="st2" d="M19.03,17.69c-2.47,2.3-4.16,5.12-5.07,8.15l3.2.99c.74-2.47,2.13-4.79,4.15-6.66,4.09-3.8,9.74-4.86,14.73-3.28l.99-3.2c-6.09-1.93-13-.64-18,4.01Z"/>
  <path class="st2" d="M23.59,22.64c3.18-2.96,7.58-3.78,11.45-2.55l.99-3.2c-4.99-1.58-10.63-.52-14.73,3.28-2.02,1.88-3.41,4.19-4.15,6.66l3.2.99c.58-1.92,1.65-3.72,3.23-5.18Z"/>
  <ellipse class="st4" cx="50.38" cy="46.75" rx="12.6" ry="4.51" transform="translate(-17.71 56.1) rotate(-50.68)"/>
  <path class="st7" d="M56.05,41.45c-1.14-.79-3.12.1-4.42,1.98-.63.91-.98,1.89-1.04,2.74-1.1.08-2.42.81-3.48,2.07-1.58,1.87-1.96,4.15-.85,5.09s3.29.18,4.87-1.69c.86-1.01,1.35-2.14,1.45-3.12,1.05-.11,2.29-.93,3.19-2.24,1.3-1.88,1.42-4.05.28-4.84Z"/>
  <ellipse class="st0" cx="49.33" cy="50.27" rx="2.57" ry="1.18" transform="translate(-21.07 52.4) rotate(-47.27)"/>
  <ellipse class="st0" cx="53.81" cy="45.12" rx="2.57" ry="1.24" transform="translate(-15.84 54.03) rotate(-47.27)"/>
</svg>