<?xml version="1.0" encoding="UTF-8"?>
<svg id="Calque_1" xmlns="http://www.w3.org/2000/svg" version="1.1" viewBox="0 0 800 800">
  <!-- Generator: Adobe Illustrator 29.8.3, SVG Export Plug-In . SVG Version: 2.1.1 Build 3)  -->
  <defs>
    <style>
      .st0 {
        fill: #fef9d2;
      }
    </style>
  </defs>
  <path class="st0" d="M87.89,283.19c-1.31.55-2.45,1.31-3.41,2.3-.96.98-1.71,2.13-2.26,3.45s-.82,2.71-.83,4.19l-.1,107.02,21.35.02.09-96.42,85.58.08.02-21.35-96.18-.09c-1.53,0-2.96.27-4.27.82Z"/>
  <rect class="st0" x="111.25" y="330.55" width="67.51" height="21.52"/>
  <path class="st0" d="M310.25,452.19c-1.59-2.74-3.43-5.15-5.54-7.23-2.11-2.08-4.36-3.86-6.77-5.35,2.8-3.88,4.83-8,6.09-12.36,1.26-4.35,1.9-8.42,1.9-12.2v-4.02c0-2.96-.44-5.54-1.11-7.93-1.46-9.91-9.91-17.54-20.22-17.55h-1.58c-.99-.12-2.08-.5-3.02-.5l-61.67-.06.1-102.51-20.54-.02-.11,113.25s0,.01,0,.02l-.09,96.26s0,.01,0,.02v.78c0,5.5,4.45,9.97,9.96,9.98h10.57s0,0,0,0l71.28.07c4.76,0,8.79-.85,12.08-2.58,3.29-1.72,5.96-3.87,8.01-6.44,2.06-2.57,3.54-5.36,4.44-8.37.91-3.01,1.36-5.83,1.36-8.46v-4.11c0-4.16-.45-7.97-1.38-11.42-.93-3.45-2.18-6.55-3.77-9.28ZM294.04,476.82c0,1.15-.17,2.05-.5,2.71s-.71,1.12-1.15,1.4c-.44.27-.93.44-1.48.49s-1.01.08-1.4.08l-70.47-.07.07-75.07,60.86.06c2.96,0,4.43,1.54,4.43,4.6v4.02c0,2.79-.43,5.3-1.28,7.51s-2.07,4.12-3.66,5.7c-1.59,1.59-3.51,2.8-5.75,3.65-2.25.85-4.76,1.27-7.56,1.27l-38.52-.04-.02,21.52,48.13.05c2.79,0,5.31.43,7.56,1.28,2.24.85,4.16,2.07,5.75,3.66s2.82,3.49,3.69,5.71c.87,2.22,1.31,4.72,1.31,7.52v3.94Z"/>
  <polygon class="st0" points="718.71 282.98 698.17 282.96 698.12 331.33 622.01 331.26 622.06 282.88 601.52 282.86 601.31 503.15 621.85 503.17 621.99 351.8 698.1 351.87 698.06 391.59 637.44 445.91 638.12 446.68 638.11 446.69 702.15 518.16 717.45 504.46 666.43 447.52 718.59 400.77 718.58 400.75 718.59 400.75 718.71 282.98"/>
  <path class="st0" d="M429.11,282.7h-6.33s-29.62,2.98-29.62,2.98c-9.3.94-18.22,4.03-26,9.21-17.83,11.87-44.43,38.32-41.49,89.44.01.2,0,.78,0,.78v15.27s-.02,7.05-.02,7.05l-.09,95.46,23.1.02.09-95.46,69.93.07-.09,95.47,20.54.02.2-210.06c0-5.65-4.57-10.24-10.22-10.24ZM418.71,384.41l-69.93-.07-.48-8.5c-2.23-39.75,30.75-72.53,70.49-70.06l-.08,78.63Z"/>
  <path class="st0" d="M506.79,406.44l52.18-.41s37.38-1.2,36.39-40.66c-.75-30.06-37.94-33.98-37.94-33.98l-52.35-.05s-17.57-.25-17.45-14.41c.11-13.26,16.88-12.66,16.88-12.66l74.19-.51.02-21.85-76.75-.07s-37.2.9-37.24,37c-.03,32.77,40.33,33.38,40.33,33.38l39.06.04s26.83-2.97,28.35,14.29c2.18,24.79-28.04,19.36-28.04,19.36l-46.88-.34c-9.42-.07-17.05,7.61-16.93,17.03l-.27,79.85c-.04,11.24,9.06,20.38,20.3,20.39l86.17.08.02-21.59-78.66-.33c-3.54-.01-6.4-2.89-6.39-6.44l.16-63.25c0-2.68,2.17-4.85,4.84-4.87Z"/>
</svg>