<?xml version="1.0" encoding="UTF-8"?>
<svg id="Calque_1" xmlns="http://www.w3.org/2000/svg" version="1.1" viewBox="0 0 64 64">
  <!-- Generator: Adobe Illustrator 29.8.3, SVG Export Plug-In . SVG Version: 2.1.1 Build 3)  -->
  <defs>
    <style>
      .st0 {
        fill: #83c4cf;
      }

      .st1 {
        fill: #fff;
      }

      .st1, .st2, .st3 {
        stroke-miterlimit: 10;
      }

      .st1, .st3 {
        stroke: #010101;
      }

      .st4 {
        stroke-miterlimit: 10;
        stroke-width: 1px;
      }

      .st4, .st5 {
        fill: #fef9d2;
        stroke: #5ac1d4;
      }

      .st5 {
        stroke-miterlimit: 10;
        stroke-width: 1px;
      }

      .st2 {
        stroke: #fef9d2;
      }

      .st2, .st6 {
        fill: #2c2e43;
      }

      .st3 {
        fill: #148bb6;
      }

      .st7 {
        fill: #5ac1d4;
      }
    </style>
  </defs>
  <path class="st7" d="M39.96,6.28h0l-7.96,25.81L6.06,24.08c-4.4,14.26,3.65,29.39,17.98,33.81,14.33,4.42,29.51-3.55,33.9-17.81,4.4-14.26-3.65-29.39-17.98-33.81h0Z"/>
  <path class="st6" d="M41.6,37.51c-3.19,5.41-10.08,7.37-15.38,4.37-5.3-3-7.01-9.82-3.82-15.23,3.19-5.41,10.08-7.37,15.38-4.37s7.01,9.82,3.82,15.23Z"/>
  <polygon class="st0" points="37.52 24.09 23.11 31.08 35.37 39.96 37.52 24.09"/>
  <path class="st3" d="M20.89,28.01l-3.06-.95"/>
  <path class="st1" d="M35.86,17.58l-.95,3.06"/>
  <path class="st2" d="M15.48,14.01c6.53-6.01,15.4-7.87,23.24-5.67l.7-2.25C25.4,1.74,10.53,9.52,6.21,23.46l2.6.8c1.27-3.79,3.51-7.34,6.68-10.26h0Z"/>
  <path class="st2" d="M15.31,13.74c-3.22,2.98-5.49,6.59-6.78,10.45l3.19.99c1.03-3.41,2.94-6.6,5.73-9.19,5.65-5.24,13.44-6.71,20.31-4.53l1.09-3.52c-7.93-2.23-16.91-.32-23.54,5.8h0Z"/>
  <path class="st2" d="M19.62,18.34c4.78-4.44,11.37-5.67,17.19-3.83l.95-3.06c-6.87-2.18-14.67-.72-20.31,4.53-2.79,2.59-4.7,5.78-5.73,9.19l3.06.95c.87-2.89,2.48-5.58,4.84-7.78h0Z"/>
  <path class="st2" d="M19.62,18.34c-2.36,2.19-3.98,4.89-4.84,7.78l3.06.95c.71-2.36,2.03-4.57,3.96-6.36,3.91-3.63,9.3-4.64,14.06-3.13l.95-3.06c-5.82-1.85-12.41-.61-17.19,3.83h0Z"/>
  <path class="st2" d="M23.97,23.07c3.04-2.82,7.23-3.61,10.94-2.44l.95-3.06c-4.76-1.51-10.15-.5-14.06,3.13-1.93,1.79-3.25,4-3.96,6.36l3.06.95c.55-1.84,1.58-3.55,3.08-4.95h0Z"/>
  <ellipse class="st5" cx="49.54" cy="46.08" rx="12.03" ry="4.31" transform="translate(-17.5 55.21) rotate(-50.68)"/>
  <path class="st7" d="M54.96,41.02c-1.09-.75-2.98.09-4.22,1.89-.6.87-.93,1.79-1,2.61-1.05.07-2.31.79-3.33,1.99-1.51,1.79-1.87,3.96-.81,4.86s3.14.17,4.65-1.62c.81-.96,1.29-2.04,1.39-2.96,1-.11,2.18-.9,3.04-2.15,1.24-1.8,1.36-3.87.27-4.62h0Z"/>
  <ellipse class="st4" cx="48.55" cy="49.45" rx="2.46" ry="1.13" transform="translate(-20.71 51.56) rotate(-47.27)"/>
  <ellipse class="st4" cx="52.82" cy="44.52" rx="2.46" ry="1.19" transform="translate(-15.73 53.11) rotate(-47.27)"/>
</svg>