<?xml version="1.0" encoding="UTF-8"?>
<svg id="Calque_1" xmlns="http://www.w3.org/2000/svg" version="1.1" viewBox="0 0 800 800">
  <!-- Generator: Adobe Illustrator 29.8.3, SVG Export Plug-In . SVG Version: 2.1.1 Build 3)  -->
  <defs>
    <style>
      .st0 {
        fill: #37664e;
      }
    </style>
  </defs>
  <path class="st0" d="M775.27,339.88c-26.61,26.61-69.96,27.06-74.78,11.37-1.96-6.42,2.46-12.92,7.14-17.73,20.14-20.72,49.38-31.95,66.03-55.55,5.06-7.17,7.3-20.11,2.41-27.39-8.13-12.09-43.65-10.57-62.69-8.19-93.01,11.7-79.81,149.77-17.79,153.4,52.4,3.04,77.1-5.75,83.13-13.5,9.77-12.53,4.32-50.21-3.49-42.41h.03ZM690.12,337.03c-5.95,1.74-13.47-27.03-9.27-47.14,2.96-14.16,12.45-27.55,26.14-32.23,9.16-3.13,26-6.83,37.35,4.51,6.25,6.25,6.42,23.16-15.71,37.79-19.56,12.92-37.65,36.85-38.51,37.1v-.03Z"/>
  <path class="st0" d="M578.47,191.35c-3.29-7.64,52.34-6.81,52.34.19,0,39.17-2.99,139.01.69,175.97,1.49,15.05,20.97,19.75,13.58,25.01-1.58,1.13-37.43,7.69-59.26.83-14.5-4.56,12.09-11.56,12.09-24.4,0-45.65-1.83-162.11-1.96-163.41-.39-3.76-15.27-9.07-17.48-14.16v-.03Z"/>
  <path class="st0" d="M427.34,374.6c-4.79-4.7-1.36-50.71-4.26-99.92-1.05-17.73-5.37-28.49-31.48-31.26-20.36-2.16-40.83-4.15-61.25-2.55-38.67,3.07-41.61,28.49-27.36,37.57,14.55,9.27,29.19,4.62,50.46,6.11,6.28.44-32.67,24.79-41.52,32.28-16.18,13.72-26.72,37.65-16.9,58.65,15.63,33.45,141.95,19.06,144.38,9.1,1.3-5.23-8.22-6.28-12.06-10.04v.06ZM384.21,353.55c-10.57,10.57-57.38,10.01-57.38-21.16,0-21.63,52.15-35,53.61-48.72,1.96-18.45-45.62-5.31-53.48-14.47-13.97-16.24,55.72-23.63,60.5-5.17,2.66,10.26,12.37,73.92-3.24,89.52h-.03Z"/>
  <path class="st0" d="M160.27,213.04c-55.13-65.09-118.43-21.02-131.68,5.64-13.25,26.67-14.58,58.12-10.57,87.61,12.03,87.92,61.61,90.63,81.08,90.08,18.34-.53,77.24,7.28,79.06-104.74.41-25.89-1.19-58.84-17.9-78.59h0ZM45.82,234.68c19.12-53.56,77.54-37.98,80.95-14.39,3.38,23.43-37.46,9.27-79.87,86.42-6.17,11.2-5.34-60.11-1.08-72.04h0ZM79.04,350.15c-28.02-8.49-24.57-36.18-2.93-59.78,19.23-20.97,54.55-37.26,68.44-56.08,10.13-13.72,19.01,141.45-65.51,115.86h0Z"/>
  <path class="st0" d="M228.65,269.12c-8.58-7.05,11.95-11.84,7.88-16.4-10.43-11.79-54.36-6.09-55.19,1.16-.39,3.57,11.73,7.94,11.43,32.53-.36,29.63,3.02,94.64-6.42,96-10.65,1.52-10.21,9.24-2.46,11.54,6.45,1.91,50.54,5.7,59.26-3.02,5.37-5.37-3.76-9.85-10.51-10.98-8.19-1.38-6.2-41.66-3.98-88.53.66-14.3,40.09-19.67,24.76,22.55-7.75,21.3,37.76,3.57,37.76-41.33,0-15.35-11.87-25.53-25.89-23.16-7.99,1.36-29.57,25.48-36.66,19.64h.03Z"/>
  <path class="st0" d="M775.27,339.88c-26.61,26.61-69.96,27.06-74.78,11.37-1.96-6.42,2.46-12.92,7.14-17.73,20.14-20.72,49.38-31.95,66.03-55.55,5.06-7.17,7.3-20.11,2.41-27.39-8.13-12.09-43.65-10.57-62.69-8.19-93.01,11.7-79.81,149.77-17.79,153.4,52.4,3.04,77.1-5.75,83.13-13.5,9.77-12.53,4.32-50.21-3.49-42.41h.03ZM690.12,337.03c-5.95,1.74-13.47-27.03-9.27-47.14,2.96-14.16,12.45-27.55,26.14-32.23,9.16-3.13,26-6.83,37.35,4.51,6.25,6.25,6.42,23.16-15.71,37.79-19.56,12.92-37.65,36.85-38.51,37.1v-.03Z"/>
  <path class="st0" d="M551.44,293.96c16.24-2.27,28.8-25.06,19.89-32.92-97.71-85.95-199.27,94.53-79.84,131.88,10.21,3.18,64.76,9.41,80.84-10.43,3.73-4.62,6.78-20.33,2.66-33.94-5.81-19.23-10.54,6.67-27.58,8.91-117.99,15.41-69.02-123.83-16.68-98.24,26.92,13.17-14.75,9.13-14.75,23.32,0,.89.11,1.72.3,2.49,2.9,11.62,27.66,9.96,35.16,8.91v.03Z"/>
  <path class="st0" d="M547.83,534.59c-18.05-64.6-96.89-62.95-115.08-8.89-18.77,55.85,3.21,94.79,30.22,94.79s43.46.31,55.63.31c11.35,0,42.9-37.18,29.21-86.22h.02ZM487.65,582.47c-19.18,0-34.74-18.53-34.74-41.36s15.56-41.36,34.74-41.36,34.74,18.53,34.74,41.36-15.56,41.36-34.74,41.36Z"/>
  <path class="st0" d="M167.69,598.75c-18.91-61.26,2.56-77.23-50.01-100.59-14.23-5.24,59.06-35.27,36.14-53.41-24.47-19.37-228.04-34.59-117.06,32.1,2.63,1.57-4.3-7.17,2.56,115.2.48,8.65-23,13.91-21.81,22.49,1.14,8.21,66.46,3.33,68.8,2.85,1.91-.39,18.84-2.95-15.51-22.88-2.95-1.72,1.93,3.31,1.93-98.92,0-10.22,43.77,19.35,50.32,39.18,9.83,29.76,5.39,29.59,9.06,67.54.34,3.53-8.21,6.16-7.8,10.41.72,7.59,57.32,11.6,61.21,3.96,4.76-9.28-14.42-6.81-17.85-17.95h.02ZM39.06,461.85c-4.13,3.91-16.02-12.56-14.76-18.09,1.84-7.97,24.37,9.01,14.76,18.09ZM71.57,479.05c-1.21-.87-1.21-31.11-.65-32.44,2.32-5.63,63.7-10.36,63.7,17.34,0,13.7-51.99,23.12-63.05,15.1Z"/>
  <path class="st0" d="M779.18,584.52c2.63-43.07,2.37-99.53,1.59-142.65-.05-3.12-56.94-8.02-48.48,1.76,2.68,3.12,25.56-8.19,16.19,48-.6,3.67-31.57-17.05-62.35,1.72-17.37,10.58-24.91,29.45-26.21,49.74-2.58,40.39,15.99,63.73,24.62,68.34,25.24,13.53,111.58,11.93,111.58-1.52,0-9.13-18.53.72-16.93-25.39h0ZM716.66,584.5c-47.03,0-41.36-81.26-3.04-81.26,50.71-3.79,63,81.26,3.04,81.26h0Z"/>
  <path class="st0" d="M286.4,571.43c-23.24,23.24-61.09,23.63-65.3,9.93-1.72-5.6,2.15-11.28,6.23-15.48,17.59-18.09,43.12-27.9,57.66-48.51,4.42-6.26,6.38-17.56,2.1-23.92-7.1-10.56-38.12-9.23-54.74-7.15-81.22,10.22-69.69,130.79-15.53,133.95,45.75,2.66,67.33-5.02,72.59-11.79,8.53-10.94,3.77-43.84-3.04-37.03h.02ZM212.07,568.94c-5.19,1.52-11.76-23.6-8.09-41.16,2.58-12.37,10.87-24.06,22.83-28.14,8-2.73,22.71-5.97,32.61,3.94,5.46,5.46,5.6,20.22-13.72,33-17.08,11.28-32.88,32.18-33.63,32.39v-.02Z"/>
  <path class="st0" d="M398.56,531.33c14.18-1.98,25.15-21.89,17.37-28.75-85.32-75.06-174,82.54-69.72,115.16,8.91,2.78,56.55,8.21,70.59-9.11,3.26-4.03,5.92-17.76,2.32-29.64-5.07-16.79-9.2,5.82-24.08,7.78-103.03,13.46-60.27-108.13-14.57-85.78,23.5,11.5-12.88,7.97-12.88,20.36,0,.77.1,1.5.27,2.17,2.54,10.15,24.16,8.7,30.7,7.78v.02Z"/>
  <path class="st0" d="M600.15,509.63c-7.49-6.16,10.44-10.34,6.88-14.33-9.11-10.29-47.47-5.31-48.19,1.01-.34,3.12,10.24,6.93,9.98,28.41-.31,25.87,2.63,82.64-5.6,83.82-9.3,1.33-8.91,8.07-2.15,10.07,5.63,1.67,44.13,4.98,51.74-2.63,4.69-4.69-3.29-8.6-9.18-9.59-7.15-1.21-5.41-36.38-3.48-77.3.58-12.49,35-17.18,21.62,19.69-6.76,18.6,32.97,3.12,32.97-36.09,0-13.41-10.36-22.3-22.61-20.22-6.98,1.18-25.82,22.25-32.01,17.15h.02Z"/>
</svg>