<?xml version="1.0" encoding="UTF-8"?>
<svg id="Calque_1" xmlns="http://www.w3.org/2000/svg" version="1.1" viewBox="0 0 800 800">
  <!-- Generator: Adobe Illustrator 29.8.3, SVG Export Plug-In . SVG Version: 2.1.1 Build 3)  -->
  <defs>
    <style>
      .st0 {
        fill: #fdf8d1;
      }

      .st1 {
        fill: #81c3ce;
      }

      .st2 {
        fill: #f0b8d5;
      }
    </style>
  </defs>
  <g>
    <path class="st0" d="M59.36,267.63c-1.45.6-2.71,1.45-3.76,2.53-1.06,1.09-1.89,2.36-2.5,3.8s-.91,2.99-.91,4.62l-.11,118.11,23.57.02.1-106.42,94.45.09.02-23.57-106.15-.1c-1.69,0-3.26.3-4.71.9Z"/>
    <rect class="st0" x="85.13" y="319.9" width="74.51" height="23.75"/>
    <path class="st0" d="M304.76,454.15c-1.75-3.02-3.79-5.68-6.11-7.98-2.32-2.3-4.82-4.27-7.47-5.9,3.09-4.29,5.33-8.83,6.72-13.64,1.39-4.8,2.09-9.29,2.1-13.46v-4.44c0-3.27-.49-6.11-1.22-8.75-1.61-10.93-10.93-19.35-22.31-19.37h-1.74c-1.09-.13-2.3-.55-3.33-.56l-68.07-.07.11-113.13-22.67-.02-.12,124.99s0,.01,0,.02l-.1,106.24s0,.01,0,.02v.86c0,6.08,4.91,11.01,10.99,11.01h11.67s0,0,0,0l78.67.08c5.26,0,9.7-.94,13.33-2.84,3.63-1.9,6.58-4.27,8.84-7.11,2.27-2.84,3.9-5.92,4.9-9.24,1-3.32,1.5-6.43,1.5-9.34v-4.53c0-4.59-.5-8.79-1.52-12.6-1.02-3.81-2.41-7.22-4.16-10.25ZM286.88,481.33c0,1.27-.18,2.27-.55,2.99s-.79,1.24-1.27,1.54c-.48.3-1.03.48-1.63.54s-1.12.09-1.54.09l-77.78-.07.08-82.85,67.17.06c3.26,0,4.89,1.7,4.89,5.08v4.44c0,3.08-.48,5.85-1.42,8.29s-2.29,4.55-4.04,6.3c-1.75,1.75-3.87,3.09-6.35,4.03-2.48.93-5.26,1.4-8.34,1.4l-42.51-.04-.02,23.75,53.12.05c3.08,0,5.86.47,8.34,1.41,2.48.94,4.59,2.29,6.34,4.04,1.75,1.75,3.11,3.86,4.07,6.3.96,2.45,1.45,5.21,1.44,8.3v4.35Z"/>
    <polygon class="st0" points="755.56 267.39 732.9 267.37 732.85 320.76 648.84 320.68 648.89 267.29 626.23 267.26 625.99 510.39 648.66 510.41 648.82 343.35 732.82 343.43 732.78 387.26 665.87 447.22 666.63 448.06 666.61 448.08 737.29 526.96 754.18 511.83 697.86 448.99 755.44 397.39 755.42 397.37 755.44 397.37 755.56 267.39"/>
    <path class="st0" d="M435.95,267.08h-6.98s-32.69,3.28-32.69,3.28c-10.27,1.03-20.11,4.45-28.7,10.17-19.68,13.11-49.03,42.29-45.79,98.71.01.22,0,.86,0,.86l-.02,16.85v7.78s-.11,105.36-.11,105.36l25.49.02.1-105.36,77.18.07-.1,105.36,22.67.02.22-231.83c0-6.24-5.05-11.3-11.28-11.3ZM424.47,379.34l-77.18-.07-.53-9.39c-2.46-43.87,33.94-80.05,77.79-77.32l-.08,86.78Z"/>
    <path class="st0" d="M521.68,403.65l57.59-.45s41.25-1.32,40.16-44.88c-.83-33.17-41.87-37.5-41.87-37.5l-57.78-.06s-19.39-.27-19.26-15.91c.12-14.63,18.63-13.97,18.63-13.97l81.88-.56.02-24.11-84.71-.08s-41.06.99-41.1,40.84c-.03,36.17,44.51,36.84,44.51,36.84l43.11.04s29.62-3.28,31.29,15.77c2.41,27.36-30.95,21.37-30.95,21.37l-51.74-.38c-10.39-.08-18.82,8.4-18.68,18.8l-.3,88.13c-.04,12.41,10,22.49,22.41,22.5l95.1.09.02-23.83-86.82-.36c-3.91-.02-7.07-3.19-7.06-7.1l.18-69.81c0-2.95,2.39-5.35,5.34-5.37Z"/>
  </g>
  <path class="st1" d="M162.46,297.85h-94.45v106.42h-23.57v-118.11c0-1.63.3-3.17.91-4.62s1.44-2.72,2.49-3.81,2.31-1.93,3.76-2.54,3.02-.91,4.71-.91h106.15v23.57ZM151.94,351.15h-74.51v-23.75h74.51v23.75Z"/>
  <path class="st1" d="M301.35,471.72c-1.03-3.81-2.42-7.22-4.17-10.24s-3.79-5.68-6.12-7.98-4.82-4.26-7.48-5.89c3.08-4.29,5.32-8.84,6.71-13.64s2.08-9.29,2.08-13.46v-4.44c0-3.27-.5-6.11-1.24-8.75-1.62-10.93-10.95-19.34-22.33-19.34h-1.74c-1.09-.13-2.3-.55-3.34-.55h-68.07v-113.13h-22.67v124.99s0,.01,0,.02v106.24s0,.01,0,.02v.86c0,6.08,4.92,11,11,11h11.67s78.67,0,78.67,0c5.26,0,9.7-.95,13.33-2.86,3.63-1.9,6.57-4.28,8.84-7.12s3.9-5.92,4.89-9.25,1.5-6.44,1.5-9.34v-4.53c0-4.59-.51-8.79-1.54-12.6ZM279.32,488.67c0,1.27-.18,2.27-.54,2.99s-.79,1.24-1.27,1.54-1.03.48-1.63.54-1.12.09-1.54.09h-77.78v-82.85h67.17c3.26,0,4.89,1.69,4.89,5.08v4.44c0,3.08-.47,5.85-1.41,8.29s-2.28,4.55-4.03,6.3-3.87,3.1-6.35,4.03-5.26,1.41-8.34,1.41h-42.51v23.75h53.12c3.08,0,5.86.47,8.34,1.41s4.59,2.28,6.35,4.03,3.11,3.85,4.08,6.3,1.45,5.21,1.45,8.29v4.35Z"/>
  <polygon class="st1" points="747.8 274.28 725.13 274.28 725.13 327.68 641.13 327.68 641.13 274.28 618.46 274.28 618.46 517.41 641.13 517.41 641.13 350.34 725.13 350.34 725.13 394.17 658.28 454.2 659.04 455.04 659.02 455.06 729.78 533.87 746.65 518.72 690.27 455.94 747.8 404.29 747.79 404.27 747.8 404.27 747.8 274.28"/>
  <path class="st2" d="M428.19,274.28h-6.98l-32.69,3.32c-10.27,1.04-20.1,4.47-28.69,10.2-19.67,13.12-48.99,42.34-45.69,98.75.01.22,0,.86,0,.86v129.99h25.49v-105.36h77.18v105.36h22.67v-231.83c0-6.24-5.06-11.29-11.29-11.29ZM416.81,386.55h-77.18l-.54-9.39c-2.51-43.87,33.86-80.08,77.72-77.39v86.78Z"/>
  <path class="st1" d="M593.29,273.26v24.11l-81.88.64s-18.51-.64-18.62,13.99c-.11,15.64,19.27,15.89,19.27,15.89h57.78s41.05,4.29,41.91,37.46c1.13,43.55-40.12,44.91-40.12,44.91l-57.59.51c-2.95.03-5.33,2.42-5.34,5.38l-.11,69.81c0,3.91,3.15,7.08,7.06,7.1l86.82.28v23.83h-95.1c-12.41,0-22.46-10.08-22.43-22.48l.22-88.13c-.15-10.39,8.27-18.88,18.66-18.81l51.74.33s33.36,5.96,30.92-21.4c-1.7-19.04-31.31-15.74-31.31-15.74h-43.11s-44.54-.63-44.54-36.8c0-39.85,41.06-40.88,41.06-40.88h84.71Z"/>
</svg>