<?xml version="1.0" encoding="UTF-8"?>
<svg id="Calque_1" xmlns="http://www.w3.org/2000/svg" version="1.1" viewBox="0 0 20 20">
  <!-- Generator: Adobe Illustrator 29.8.3, SVG Export Plug-In . SVG Version: 2.1.1 Build 3)  -->
  <defs>
    <style>
      .st0 {
        fill: #f8fcfc;
      }
    </style>
  </defs>
  <path class="st0" d="M17.55,15.47l-3.78-3.78c.59-.97.9-2.08.9-3.21,0-3.42-2.96-6.38-6.38-6.38-3.42,0-6.19,2.77-6.19,6.18,0,0,0,0,0,0,0,3.42,2.96,6.38,6.38,6.38,1.09,0,2.17-.29,3.11-.84l3.8,3.8c.37.37.97.37,1.35,0l.94-.94c.37-.37.24-.84-.14-1.21ZM4,8.29c0-2.36,1.92-4.28,4.28-4.28h0c2.37,0,4.47,2.11,4.47,4.47,0,2.37-1.92,4.28-4.28,4.28-2.37,0-4.47-2.11-4.47-4.47Z"/>
</svg>