<?xml version="1.0" encoding="UTF-8"?>
<svg id="Calque_1" xmlns="http://www.w3.org/2000/svg" version="1.1" viewBox="0 0 800 800">
  <!-- Generator: Adobe Illustrator 29.8.3, SVG Export Plug-In . SVG Version: 2.1.1 Build 3)  -->
  <defs>
    <style>
      .st0 {
        fill: #3c3d51;
      }
    </style>
  </defs>
  <path class="st0" d="M416.4,25.73c40.92-.62,81.55-.3,122.15-.62,1.35,50.77,21.95,96.47,54.72,130.32l-.05-.05c35.27,31.77,81.17,52.38,131.77,55.87l.7.05v125.9c-47.8-1.2-92.75-12.23-133.27-31.17l2.05.85c-19.6-9.42-36.18-19.1-51.92-29.9l1.3.85c-.3,91.23.3,182.45-.62,273.35-2.58,46.33-17.97,88.57-42.68,123.85l.5-.78c-41.3,59.15-108.2,97.98-184.28,100.27h-.35c-3.08.15-6.7.23-10.35.23-43.25,0-83.68-12.05-118.12-32.98l1,.58c-62.7-37.73-105.95-102.27-113.95-177.35l-.1-1.03c-.63-15.62-.92-31.25-.3-46.55,12.25-119.47,112.35-211.9,234.03-211.9,13.67,0,27.08,1.17,40.1,3.4l-1.4-.2c.62,46.22-1.25,92.48-1.25,138.7-10.58-3.82-22.78-6.05-35.5-6.05-46.7,0-86.42,29.85-101.13,71.53l-.22.75c-3.33,10.68-5.25,22.95-5.25,35.65,0,5.15.32,10.25.92,15.25l-.05-.6c8.3,51.15,52.15,89.75,105.03,89.75,1.52,0,3.03-.02,4.52-.1h-.22c36.58-1.1,68.32-20.77,86.27-49.85l.25-.45c6.68-9.3,11.25-20.55,12.77-32.78l.02-.35c3.12-55.92,1.88-111.53,2.17-167.45.3-125.9-.3-251.5.62-377.08l.1.07Z"/>
</svg>