<?xml version="1.0" encoding="UTF-8"?>
<svg id="Calque_1" xmlns="http://www.w3.org/2000/svg" version="1.1" viewBox="0 0 800 800">
  <!-- Generator: Adobe Illustrator 29.8.3, SVG Export Plug-In . SVG Version: 2.1.1 Build 3)  -->
  <defs>
    <style>
      .st0 {
        fill: #1d2d44;
      }

      .st1 {
        fill: #8dd0f4;
      }
    </style>
  </defs>
  <g>
    <path class="st0" d="M533.08,554.77c-9.3,0-17.38-6.52-19.23-15.53-2.6-12.5-4.02-52.68-1.85-72.16,1.18-10.54,3.78-18.52,8.48-25.86,27.46-43.06,88.08-99.76,95.85-105.86,3.56-2.78,8.01-4.31,12.54-4.31,7.73,0,14.67,4.24,18.09,11.08,4.81,9.62,26.25,55.03,29.74,66,3.53,11.08-1.07,23.15-11.18,29.31-.85.53-1.89,1.18-3.13,1.96l-.75.5c-48.55,30.67-86.19,66.32-111.95,105.89-3.63,5.59-9.83,8.94-16.56,8.94h0l-.04.04Z"/>
    <path class="st0" d="M534.93,536.25c41.49-63.79,101.26-101.01,118.04-111.63,1.28-.82,2.42-1.5,3.35-2.1,3.24-1.99,4.7-5.63,3.6-9.01-2.85-8.94-23.15-52.32-28.74-63.51-.71-1.42-2.78-1.85-4.1-.82-7.94,6.2-66.36,61.51-91.86,101.44-2.96,4.63-4.92,10.01-5.81,18.34-1.96,17.67-.57,56.17,1.6,66.68.36,1.71,2.92,2.07,3.88.57l.04.04Z"/>
    <path class="st0" d="M542.77,616.17c-9.72,0-18.2-6.87-20.09-16.31-1.67-8.33-5.24-35.87-5.73-40.96l-.11-.93c-.68-5.77-1.07-11.4,1.25-16.88,8.58-20.37,60.73-88.37,133.03-127.87,3.81-2.1,8.09-3.21,12.29-3.21,9.19,0,17.27,5.41,20.55,13.75,6.27,15.92,14.21,36.9,16.31,46.45,2.14,9.69-1.71,19.52-10.12,25.61l-4.84,3.53c-46.68,33.96-80.92,62.16-102.72,84.63-6.73,6.95-15.1,15.56-25.64,26.25-3.78,3.81-8.8,5.91-14.18,5.91h0v.04Z"/>
    <path class="st0" d="M667.64,430.21c-1.21-3.06-4.99-3.28-8.09-1.6-69.81,38.15-118.89,104.11-125.27,119.25-.85,2.03-.04,7.16.18,9.33.5,5.2,3.99,31.84,5.45,39.18.39,1.96,3.13,2.99,4.56,1.53,63.33-64.22,44.17-49.9,135.38-116.26,2.53-1.85,3.95-4.7,3.28-7.62-1.99-9.05-10.97-32.34-15.49-43.81h0Z"/>
    <path class="st0" d="M322.19,681.28c-29.1,0-52.86-6.45-70.59-19.2-5.2-3.74-8.55-9.44-9.08-15.64-.57-6.09,1.6-12.18,5.95-16.7,2.56-2.67,5.2-5.56,7.91-8.66-8.3,3.53-15.53,6.3-20.87,8.23-5.34,1.92-10.65,2.92-15.81,2.92-3.67,0-7.19-.5-10.51-1.5-43.74-13.18-61.8-37.08-67.53-46.77-1.75-2.92-2.81-6.09-3.21-9.33h-.53c-17.6,0-35.23-13.29-41.99-18.98-8.62-7.3-23.65-22.4-27.57-41.71-.78-3.85-.53-7.66.61-11.22-2.03-.61-3.95-1.39-5.77-2.35-17.35-9.08-57.84-40.68-59.55-137.8-.11-5.13,1.85-9.94,5.45-13.61,3.7-3.78,8.94-5.91,14.35-5.91,5.98,0,11.58,2.56,15.35,7.09,53.68,64.18,159.6,136.88,226.71,155.58,22.83,6.38,50.01,12.86,78.79,12.86,57.81,0,104.07-27.32,141.4-83.49,28.6-43.06,28.71-102.54,28.03-119.75-.36-9.33,3.78-18.45,11.33-25,2.03-1.75,4.31-3.92,6.98-6.41,24.58-23.19,70.31-66.36,213.95-98.02,2.85-.64,5.77-.93,8.69-.93,13,0,24.83,6.16,30.81,16.1,5.49,9.08,14.03,28.03,9.76,53.03-1.85,10.93-10.33,20.12-22.08,24.01-135.52,44.81-224.68,168.01-229.84,184.85-3.49,16.28-1.64,54.46,1,74.69,11.18,85.7-60.69,122.99-122.99,139.16-1.67.43-3.38.64-5.13.64h0c-6.02,0-11.61-2.6-15.35-7.16-3.6-4.38-5.02-10.04-3.95-15.56.25-1.35.53-2.67.78-4.02-3.6,4.81-6.7,8.94-9.01,11.97-5.66,7.44-14.43,12.64-24.68,14.57-9.76,1.85-24.9,4.06-41.78,4.06v-.04Z"/>
    <path class="st0" d="M770.36,210.03c-3.56-5.88-12.36-8.9-20.69-7.09-155.51,34.26-191.69,81.88-213.21,100.55-3.56,3.1-5.45,7.05-5.31,11.11.75,19.52.43,82.92-30.95,130.15-75.72,113.98-173.53,96.24-239.53,77.82-67.78-18.91-177.91-92.46-235.43-161.24-1.21-1.42-4.17-.78-4.13.89,1.57,89.79,38.11,116.26,50.11,122.56,2.17,1.14,4.7,1.75,7.34,1.85,8.98.32,33.02.85,49.58-2.17,2.32-.43,3.78,1.82,1.85,2.89-11.68,6.59-25.68,12.18-38.97,15.99-3.85,1.1-6.16,4.02-5.56,7.09,4.95,24.43,41.14,50.61,56.06,46.16,39.32-11.68,43.81-15.56,71.06-25.89,2.32-.89,4.45,1.39,2.53,2.71-16.03,11.04-41.32,24.79-54.96,32.02-4.1,2.17-5.63,6.16-3.56,9.62,7.62,12.86,25.68,29.31,57.49,38.89,4.88,1.46,10.51.61,15.24-1.1,12.39-4.49,39.78-15.28,64.75-30.56,5.06-3.1,12.22,1.18,9.26,5.52-12.79,18.73-27.5,38.68-42.38,54.14-1.75,1.82-1.42,4.35.75,5.88,30.6,21.98,78.61,15.99,98.84,12.15,5.95-1.14,10.97-3.99,13.96-7.94,9.65-12.72,32.48-43.13,44.77-62.65,1.03-1.64,4.35-1,4.17.82-2.14,22.12-5.31,46.45-9.47,67.92-.21,1.14,1.28,2.07,2.78,1.67,77.43-20.12,117.97-58.8,109.99-119.89-2.56-19.55-5.06-60.98-.71-80.85,4.77-21.8,100.73-151.12,241.45-197.64,5.63-1.85,9.51-5.77,10.29-10.29,3.06-17.88-2.17-32.2-7.52-41.03l.11-.04Z"/>
    <path class="st0" d="M342.56,548.68c-60.44,0-129.18-25.32-204.3-75.26-70.59-46.94-119.21-97.49-124.52-103.08-11.22-11.86-13.21-28.32-5.09-41.96,5.59-9.37,14.57-23.54,25.57-37.83,5.73-7.44,15.28-11.86,25.61-11.86,8.44,0,16.31,2.92,22.12,8.19,31.17,28.32,111.73,94.56,187.13,98.52,1.78.11,3.49.14,5.24.14h0c91.07,0,135.31-128.12,140.05-142.72l.96-2.89c2.24-6.84,6.95-21.09,8.33-28.85,1.92-10.72,11.15-22.15,31.17-22.15,16.28,0,40.03,8.09,53.96,23.51,8.01,8.87,11.68,19.06,10.61,29.49-2.21,21.62-7.19,40.6-13,56.63l5.06-3.17c2.96-1.85,6.3-2.78,9.72-2.78,9.12,0,17.31,6.62,19.06,15.39,5.13,26.14.32,76.15-22.33,124.23-18.88,40.07-56.03,91.72-126.01,110.24-15.6,4.13-32.2,6.23-49.33,6.23h0v-.04Z"/>
    <path class="st0" d="M387.4,525.49c115.58-30.6,144.89-166.73,135.6-214.13-.11-.61-1.57-1.5-2.21-1.1l-53.21,33.34c-1.14.75-2.85-.18-2.24-1.21,7.37-12.72,31.2-49.22,36.58-102.26,2.67-26.11-57.59-44.91-61.01-25.93-1.85,10.19-7.73,27.43-9.87,34.05-14.99,46.12-66.71,159.71-162.91,154.69-82.06-4.31-167.37-75.19-198.03-103.04-5.95-5.41-17.35-4.67-22.01,1.39-10.44,13.57-18.98,27.07-24.4,36.12-4.1,6.84-3.06,14.78,2.74,20.91,39.68,41.92,218.12,205.01,360.91,167.22l.07-.04Z"/>
  </g>
  <g>
    <path class="st1" d="M534.93,536.25c41.49-63.79,101.26-101.01,118.04-111.63,1.28-.82,2.42-1.5,3.35-2.1,3.24-1.99,4.7-5.63,3.6-9.01-2.85-8.94-23.15-52.32-28.74-63.51-.71-1.42-2.78-1.85-4.1-.82-7.94,6.2-66.36,61.51-91.86,101.44-2.96,4.63-4.92,10.01-5.81,18.34-1.96,17.67-.57,56.17,1.6,66.68.36,1.71,2.92,2.07,3.88.57l.04.04Z"/>
    <path class="st1" d="M667.64,430.21c-1.21-3.06-4.99-3.28-8.09-1.6-69.81,38.15-118.89,104.11-125.27,119.25-.85,2.03-.04,7.16.18,9.33.5,5.2,3.99,31.84,5.45,39.18.39,1.96,3.13,2.99,4.56,1.53,63.33-64.22,44.17-49.9,135.38-116.26,2.53-1.85,3.95-4.7,3.28-7.62-1.99-9.05-10.97-32.34-15.49-43.81h0Z"/>
    <path class="st1" d="M770.36,210.03c-3.56-5.88-12.36-8.9-20.69-7.09-155.51,34.26-191.69,81.88-213.21,100.55-3.56,3.1-5.45,7.05-5.31,11.11.75,19.52.43,82.92-30.95,130.15-75.72,113.98-173.53,96.24-239.53,77.82-67.78-18.91-177.91-92.46-235.43-161.24-1.21-1.42-4.17-.78-4.13.89,1.57,89.79,38.11,116.26,50.11,122.56,2.17,1.14,4.7,1.75,7.34,1.85,8.98.32,33.02.85,49.58-2.17,2.32-.43,3.78,1.82,1.85,2.89-11.68,6.59-25.68,12.18-38.97,15.99-3.85,1.1-6.16,4.02-5.56,7.09,4.95,24.43,41.14,50.61,56.06,46.16,39.32-11.68,43.81-15.56,71.06-25.89,2.32-.89,4.45,1.39,2.53,2.71-16.03,11.04-41.32,24.79-54.96,32.02-4.1,2.17-5.63,6.16-3.56,9.62,7.62,12.86,25.68,29.31,57.49,38.89,4.88,1.46,10.51.61,15.24-1.1,12.39-4.49,39.78-15.28,64.75-30.56,5.06-3.1,12.22,1.18,9.26,5.52-12.79,18.73-27.5,38.68-42.38,54.14-1.75,1.82-1.42,4.35.75,5.88,30.6,21.98,78.61,15.99,98.84,12.15,5.95-1.14,10.97-3.99,13.96-7.94,9.65-12.72,32.48-43.13,44.77-62.65,1.03-1.64,4.35-1,4.17.82-2.14,22.12-5.31,46.45-9.47,67.92-.21,1.14,1.28,2.07,2.78,1.67,77.43-20.12,117.97-58.8,109.99-119.89-2.56-19.55-5.06-60.98-.71-80.85,4.77-21.8,100.73-151.12,241.45-197.64,5.63-1.85,9.51-5.77,10.29-10.29,3.06-17.88-2.17-32.2-7.52-41.03l.11-.04Z"/>
  </g>
  <g>
    <path class="st1" d="M313.5,479.58l-1.64.11c-.68.04-.93.68-.85,1.6l1.25,18.24c.04.61.36,1.21,1.03,1.18l1.64-.11c.53-.04,1.03-.68,1-1.32l-1.25-18.24c-.07-.93-.64-1.5-1.21-1.46h.04Z"/>
    <path class="st1" d="M313.32,448.84l-.93-13.75c0-.46-.61-1.03-1.42-1l-1.78.11c-.68.04-1.18.71-1.14,1.18l.93,13.75c0,.46.61.89,1.28.85l1.78-.11c.82-.07,1.32-.57,1.28-1.03h0Z"/>
    <path class="st1" d="M523,311.36c-.11-.61-1.57-1.5-2.21-1.1l-53.21,33.34c-1.14.75-2.85-.18-2.24-1.21,7.37-12.72,31.2-49.22,36.58-102.26,2.67-26.11-57.59-44.91-61.01-25.93-1.85,10.19-7.73,27.43-9.87,34.05-14.99,46.12-66.71,159.71-162.91,154.69-82.06-4.31-167.37-75.19-198.03-103.04-5.95-5.41-17.35-4.67-22.01,1.39-10.44,13.57-18.98,27.07-24.4,36.12-4.1,6.84-3.06,14.78,2.74,20.91,39.68,41.92,218.12,205.01,360.91,167.22,115.58-30.6,144.89-166.73,135.6-214.13l.07-.04ZM336.29,387.19c8.23-4.38,16.13-11.4,16.13-11.4,3.35-2.49,4.2.21,4.31,1.35l2.42,29.17c.07.85-1.75,1.92-3.99,2.1l-14.5,1.28c-2.24.21-4.2-.5-4.31-1.35l-1.57-18.63c-.07-1.07-.43-1.53,1.46-2.53h.04ZM337.25,528.34s-20.16,2.89-42.38-3.88c-2.21-.68-2.46-3.38-2.64-5.84l-6.23-105.46c-.28-4.17-.46-8.69,4.24-8.51,0,0,16.6-.39,35.65-10.36,2.85-1.5,5.41-2.1,5.95,14.71l1.85,42.99c.43,6.34.46,6.95.43,8.19.11,1.71-3.13,4.42-3.13,4.42,0,0,3.53,1.46,3.63,3.03l4.84,48.26c.28,4.17,1.92,11.83-2.17,12.5l-.04-.04ZM367.46,526.77s-10.72,4.02-17.67,1.57c-2.1-.75-4.49-3.38-4.84-7.73l-8.66-97.34c-.43-4.63,1.18-8.3,3.42-8.48l17.67-1.57c2.24-.21,4.45,3.1,4.84,7.73l8.66,97.34c.39,4.35-1.35,7.62-3.42,8.48ZM420.28,510.6c-4.7,3.24-15.85,9.87-34.91,12.96-4.17.68-7.87-2.92-8.33-7.76l-3.78-39.93,16.24-1.53-18.49-22.37s-5.16-60.83-6.98-81.21c-.04-.57-.32-1.85.75-2.89,19.16-18.09,25.68-27.82,27.82-31.81,1-1.89,3.38-2.49,5.2-1.35,2.17,1.39,3.85,4.06,4.13,6.91l15.1,80.35-18.02,1.71,20.52,24.61,6.59,53.75c.46,4.84-2.42,6.23-5.77,8.55h-.07Z"/>
  </g>
</svg>