<?xml version="1.0" encoding="UTF-8"?>
<svg id="Calque_1" xmlns="http://www.w3.org/2000/svg" version="1.1" viewBox="0 0 800 800">
  <!-- Generator: Adobe Illustrator 29.8.3, SVG Export Plug-In . SVG Version: 2.1.1 Build 3)  -->
  <defs>
    <style>
      .st0 {
        fill: #3c3d51;
      }
    </style>
  </defs>
  <path class="st0" d="M556.68,20.02H253.78c-123.27.09-223.18,100-223.28,223.28v302.89c.08,123.29,99.99,223.22,223.28,223.31h302.89c123.28-.11,223.18-100.03,223.28-223.31V243.29c-.06-123.29-99.99-223.22-223.28-223.28ZM704.6,546.19c-.02,81.69-66.23,147.9-147.92,147.92H253.78c-81.68,0-147.89-66.21-147.89-147.89V243.29c-.02-81.66,66.16-147.87,147.82-147.89h302.96c81.67.02,147.87,66.22,147.89,147.89l.03,302.89Z"/>
  <path class="st0" d="M405.25,200.98c-106.9,0-193.78,86.91-193.78,193.78s86.91,193.78,193.78,193.78,193.78-86.91,193.78-193.78-86.87-193.78-193.78-193.78ZM405.25,513.14c-65.38.02-118.4-52.97-118.42-118.35-.02-65.38,52.97-118.4,118.35-118.42h.04c65.38,0,118.38,53,118.38,118.39,0,65.37-52.98,118.36-118.35,118.38ZM599.43,155.98c25.64.02,46.42,20.82,46.4,46.47-.02,25.64-20.82,46.42-46.47,46.4-25.62-.02-46.38-20.78-46.4-46.4,0-25.62,17.37-46.47,46.47-46.47Z"/>
</svg>