<?xml version="1.0" encoding="UTF-8"?>
<svg id="Calque_1" xmlns="http://www.w3.org/2000/svg" version="1.1" viewBox="0 0 279 210.73">
  <!-- Generator: Adobe Illustrator 29.8.3, SVG Export Plug-In . SVG Version: 2.1.1 Build 3)  -->
  <defs>
    <style>
      .st0 {
        fill: #fff;
      }

      .st0, .st1, .st2, .st3 {
        stroke-miterlimit: 10;
      }

      .st0, .st4 {
        opacity: .5;
      }

      .st0, .st2 {
        stroke: #010202;
      }

      .st1 {
        fill: #fdedf5;
        stroke: #c51983;
        stroke-width: 2px;
      }

      .st5 {
        fill: #f1b9d6;
      }

      .st6 {
        stroke-miterlimit: 10;
        stroke-width: 1px;
      }

      .st6, .st4 {
        fill: #f9fcfc;
        stroke: #eb76aa;
      }

      .st7, .st3 {
        fill: #2d2f44;
      }

      .st4 {
        stroke-miterlimit: 10;
        stroke-width: 1px;
      }

      .st8 {
        fill: #c51983;
      }

      .st2 {
        fill: #158bb6;
      }

      .st9 {
        fill: #eb76aa;
      }

      .st3 {
        stroke: #f9fcfc;
      }
    </style>
  </defs>
  <path class="st9" d="M133.85,145.05h0l60.6-33.94,34.11,60.9c33.47-18.74,45.33-61.2,26.49-94.84-18.84-33.64-61.24-45.71-94.7-26.97-33.47,18.74-45.33,61.2-26.49,94.84h0Z"/>
  <path class="st7" d="M186.21,83.99c15.54-4.42,31.83,4.14,36.39,19.13,4.56,14.98-4.35,30.71-19.89,35.14-15.54,4.42-31.83-4.14-36.39-19.13-4.56-14.98,4.35-30.71,19.89-35.14Z"/>
  <polygon class="st5" points="169.99 116.21 209.23 128.75 202.15 90.48 169.99 116.21"/>
  <path class="st2" d="M207.91,138.4l4.01,7.18"/>
  <path class="st0" d="M169.86,131.29l7.18-4.01"/>
  <path class="st3" d="M193.14,174.07c-22.83-.39-42.64-12.66-53.31-30.65l-5.29,2.95c18.4,32.96,59.87,44.84,92.64,26.55l-3.41-6.1c-9.09,4.79-19.54,7.44-30.64,7.25h0Z"/>
  <path class="st3" d="M192.99,174.88c11.28.16,21.9-2.55,31.16-7.43l-4.18-7.49c-7.96,4.53-17.18,7.07-26.96,6.95-19.81-.25-36.92-11.34-45.85-27.59l-8.28,4.62c10.81,18.21,30.92,30.6,54.11,30.93h0Z"/>
  <path class="st3" d="M193.13,158.66c-16.76-.21-31.23-9.6-38.78-23.35l-7.2,4.02c8.93,16.25,26.04,27.34,45.85,27.59,9.79.12,19-2.42,26.96-6.95l-4.02-7.2c-6.74,3.84-14.53,5.99-22.81,5.89h0Z"/>
  <path class="st3" d="M193.13,158.66c8.28.11,16.08-2.05,22.81-5.89l-4.01-7.18c-5.51,3.14-11.89,4.91-18.66,4.82-13.72-.17-25.55-7.86-31.73-19.11l-7.18,4.01c7.56,13.75,22.02,23.14,38.78,23.35h0Z"/>
  <path class="st3" d="M193.4,142.14c-10.67-.13-19.87-6.11-24.68-14.86l-7.18,4.01c6.18,11.26,18.02,18.93,31.73,19.11,6.78.09,13.15-1.68,18.66-4.82l-4.01-7.18c-4.28,2.44-9.24,3.82-14.52,3.75h0Z"/>
  <ellipse class="st6" cx="186.6" cy="53.96" rx="30.93" ry="11.08" transform="translate(-5.22 23.39) rotate(-7.07)"/>
  <path class="st9" d="M167.54,53.76c.7,3.34,5.72,5.11,11.21,3.96,2.64-.55,4.91-1.69,6.48-3.08,2.08,1.72,5.71,2.63,9.72,2.2,5.98-.65,10.51-4.06,10.13-7.6-.39-3.54-5.55-5.9-11.53-5.25-3.22.35-6.01,1.5-7.85,3.05-2.07-1.57-5.66-2.19-9.48-1.38-5.49,1.15-9.38,4.79-8.69,8.12h0Z"/>
  <ellipse class="st4" cx="194.43" cy="49.45" rx="6.31" ry="2.9" transform="translate(-2.76 12.52) rotate(-3.66)"/>
  <ellipse class="st4" cx="186.07" cy="51.04" rx="6.31" ry="3.05" transform="translate(-2.88 11.99) rotate(-3.66)"/>
  <rect class="st1" x="11.54" y="15.01" width="180" height="180"/>
  <g>
    <path class="st8" d="M52.39,113.46h-9.27c-.15,0-.28-.03-.41-.08-.12-.05-.23-.12-.32-.21-.09-.09-.16-.2-.21-.32-.05-.12-.08-.26-.08-.41v-10.18h2.03v9.17h8.26v2.03Z"/>
    <path class="st8" d="M62.74,107.81c0,.28-.05.58-.15.91-.1.33-.26.63-.48.91-.22.28-.51.51-.87.7-.36.19-.79.28-1.3.28h-3.66v-1.93h3.66c.28,0,.49-.08.64-.25.15-.17.23-.38.23-.63,0-.27-.08-.47-.25-.62-.17-.15-.37-.23-.61-.23h-3.66c-.28,0-.49.08-.64.25-.15.17-.23.38-.23.63v2.84c0,.27.08.48.25.63.17.15.38.23.63.23h3.65v1.94h-3.66c-.28,0-.58-.05-.91-.15-.33-.1-.63-.26-.91-.48-.28-.22-.51-.51-.7-.87-.19-.36-.28-.79-.28-1.3v-2.85c0-.28.05-.58.15-.91.1-.33.26-.63.48-.91.22-.28.51-.51.87-.7.36-.19.79-.28,1.3-.28h3.66c.28,0,.58.05.91.15.33.1.63.26.91.48.28.22.51.51.7.87.19.36.28.79.28,1.3Z"/>
    <path class="st8" d="M72.27,110.61c0,.35-.04.66-.13.94-.09.28-.21.52-.35.73-.15.21-.32.39-.51.54-.19.15-.39.27-.61.36s-.42.16-.64.21c-.22.04-.42.07-.61.07h-5.5v-2.03h5.48c.28,0,.48-.07.62-.21s.21-.34.21-.61c-.03-.54-.3-.81-.82-.81h-3.15c-.45,0-.83-.08-1.14-.23s-.57-.35-.76-.59-.34-.49-.42-.76c-.09-.27-.13-.52-.13-.76,0-.45.08-.83.24-1.14.16-.31.36-.56.61-.75.24-.19.51-.33.8-.42.29-.09.55-.13.8-.13h4.99v2.03h-4.98c-.1,0-.19.01-.25.04-.06.02-.1.05-.13.09-.03.04-.05.08-.05.12,0,.04,0,.09,0,.13,0,.08.02.15.05.2.03.05.06.08.1.1.04.02.08.03.13.04.05,0,.1,0,.14,0h3.15c.52,0,.96.09,1.33.28.36.19.66.42.88.71.22.28.39.59.49.93.1.33.15.64.15.93Z"/>
    <path class="st8" d="M89.16,113.46h-7.33c-.19,0-.39-.02-.61-.07-.22-.04-.43-.11-.64-.21s-.41-.21-.61-.36c-.19-.15-.36-.33-.51-.54s-.27-.46-.36-.73c-.09-.28-.13-.59-.13-.94v-5.5c0-.19.02-.39.07-.61.04-.22.11-.43.21-.64s.22-.41.37-.61c.15-.19.33-.36.54-.51s.45-.27.73-.36c.28-.09.59-.13.94-.13h7.33v2.03h-7.33c-.27,0-.47.07-.61.21s-.21.35-.21.62v5.48c0,.26.07.46.21.61.14.14.34.21.61.21h7.33v2.03Z"/>
    <path class="st8" d="M99.94,110.61c0,.35-.04.66-.13.94-.09.28-.21.52-.35.73-.15.21-.32.39-.51.54-.19.15-.39.27-.61.36s-.42.16-.64.21c-.22.04-.42.07-.61.07h-3.66c-.28,0-.59-.05-.92-.15-.33-.1-.64-.26-.93-.49-.28-.23-.52-.52-.71-.88-.19-.36-.29-.81-.29-1.33v-2.75c0-.52.09-.96.29-1.32.19-.36.43-.66.71-.88.28-.23.59-.39.93-.49.33-.1.64-.15.92-.15h3.66c.52,0,.96.09,1.33.28.36.19.66.42.88.71.22.28.39.59.49.93.1.33.15.64.15.93v2.75ZM97.91,107.87c0-.28-.07-.49-.21-.62-.14-.13-.34-.2-.61-.2h-3.65c-.27,0-.48.07-.62.21-.14.14-.21.34-.21.61v2.75c0,.27.07.47.21.61s.35.21.62.21h3.65c.28,0,.48-.07.62-.21.14-.14.2-.34.2-.61v-2.73Z"/>
    <path class="st8" d="M110.9,112.43c0,.15-.03.28-.08.41-.05.12-.12.23-.21.32-.09.09-.2.16-.32.21-.12.05-.25.08-.39.08h-4.59c-.25,0-.52-.03-.8-.09-.28-.06-.56-.15-.84-.28-.28-.13-.54-.29-.8-.48s-.48-.43-.68-.71c-.19-.28-.35-.6-.46-.96-.12-.36-.18-.78-.18-1.23v-4.69h2.03v4.69c0,.27.05.5.14.71.09.21.21.39.37.54.16.15.34.27.55.35.21.08.44.12.68.12h3.55v-6.41h2.03v7.42Z"/>
    <path class="st8" d="M116.52,113.46h-.91c-.29,0-.6-.05-.93-.15-.33-.1-.64-.26-.93-.49-.29-.23-.52-.52-.71-.88-.19-.36-.28-.81-.28-1.33v-9.16h2.03v9.16c0,.25.08.45.23.6s.35.22.59.22h.91v2.03Z"/>
    <path class="st8" d="M119.88,103.28h-2.03v-1.84h2.03v1.84ZM119.88,113.46h-2.03v-8.45h2.03v8.45Z"/>
    <path class="st8" d="M129.99,110.61c0,.35-.04.66-.13.94-.09.28-.21.52-.35.73-.15.21-.32.39-.51.54-.19.15-.39.27-.61.36s-.42.16-.64.21c-.22.04-.42.07-.61.07h-5.5v-2.03h5.48c.28,0,.48-.07.62-.21s.21-.34.21-.61c-.03-.54-.3-.81-.82-.81h-3.15c-.45,0-.83-.08-1.14-.23s-.57-.35-.76-.59-.34-.49-.42-.76c-.09-.27-.13-.52-.13-.76,0-.45.08-.83.24-1.14.16-.31.36-.56.61-.75.24-.19.51-.33.8-.42.29-.09.55-.13.8-.13h4.99v2.03h-4.98c-.1,0-.19.01-.25.04-.06.02-.1.05-.13.09-.03.04-.05.08-.05.12,0,.04,0,.09,0,.13,0,.08.02.15.05.2.03.05.06.08.1.1.04.02.08.03.13.04.05,0,.1,0,.14,0h3.15c.52,0,.96.09,1.33.28.36.19.66.42.88.71.22.28.39.59.49.93.1.33.15.64.15.93Z"/>
    <path class="st8" d="M139.58,110.61c0,.35-.04.66-.13.94-.09.28-.21.52-.35.73-.15.21-.32.39-.51.54-.19.15-.39.27-.61.36s-.42.16-.64.21c-.22.04-.42.07-.61.07h-5.5v-2.03h5.48c.28,0,.48-.07.62-.21s.21-.34.21-.61c-.03-.54-.3-.81-.82-.81h-3.15c-.45,0-.83-.08-1.14-.23s-.57-.35-.76-.59-.34-.49-.42-.76c-.09-.27-.13-.52-.13-.76,0-.45.08-.83.24-1.14.16-.31.36-.56.61-.75.24-.19.51-.33.8-.42.29-.09.55-.13.8-.13h4.99v2.03h-4.98c-.1,0-.19.01-.25.04-.06.02-.1.05-.13.09-.03.04-.05.08-.05.12,0,.04,0,.09,0,.13,0,.08.02.15.05.2.03.05.06.08.1.1.04.02.08.03.13.04.05,0,.1,0,.14,0h3.15c.52,0,.96.09,1.33.28.36.19.66.42.88.71.22.28.39.59.49.93.1.33.15.64.15.93Z"/>
    <path class="st8" d="M150.09,107.81c0,.28-.05.58-.15.91-.1.33-.26.63-.48.91-.22.28-.51.51-.87.7s-.79.28-1.3.28h-3.66v-1.93h3.66c.28,0,.49-.08.64-.25.15-.17.23-.38.23-.63,0-.27-.08-.47-.25-.62-.17-.15-.37-.23-.61-.23h-3.66c-.28,0-.49.08-.64.25-.15.17-.23.38-.23.63v2.84c0,.27.08.48.25.63.17.15.38.23.63.23h3.65v1.94h-3.66c-.28,0-.58-.05-.91-.15-.33-.1-.63-.26-.91-.48-.28-.22-.51-.51-.7-.87-.19-.36-.28-.79-.28-1.3v-2.85c0-.28.05-.58.15-.91.1-.33.26-.63.48-.91.22-.28.51-.51.87-.7.36-.19.79-.28,1.3-.28h3.66c.28,0,.58.05.91.15.33.1.63.26.91.48.28.22.51.51.7.87.19.36.28.79.28,1.3Z"/>
    <path class="st8" d="M159.62,110.61c0,.35-.04.66-.13.94-.09.28-.21.52-.35.73s-.32.39-.51.54-.39.27-.61.36-.42.16-.64.21c-.22.04-.42.07-.61.07h-5.5v-2.03h5.48c.28,0,.48-.07.62-.21s.21-.34.21-.61c-.03-.54-.3-.81-.82-.81h-3.15c-.45,0-.83-.08-1.14-.23s-.57-.35-.76-.59-.34-.49-.42-.76c-.09-.27-.13-.52-.13-.76,0-.45.08-.83.24-1.14.16-.31.36-.56.61-.75.25-.19.51-.33.8-.42s.55-.13.8-.13h4.99v2.03h-4.98c-.1,0-.19.01-.25.04s-.1.05-.13.09-.05.08-.05.12c0,.04,0,.09,0,.13,0,.08.02.15.05.2s.06.08.1.1c.04.02.08.03.13.04.05,0,.1,0,.14,0h3.15c.52,0,.96.09,1.33.28s.66.42.88.71c.22.28.39.59.49.93.1.33.15.64.15.93Z"/>
  </g>
</svg>