<?xml version="1.0" encoding="UTF-8"?>
<svg xmlns="http://www.w3.org/2000/svg" version="1.1" viewBox="0 0 279 210.73">
  <!-- Generator: Adobe Illustrator 29.8.3, SVG Export Plug-In . SVG Version: 2.1.1 Build 3)  -->
  <defs>
    <style>
      .st0, .st1, .st2, .st3, .st4, .st5 {
        stroke-miterlimit: 10;
      }

      .st0, .st2 {
        fill: #fff;
      }

      .st0, .st2, .st3 {
        stroke: #010202;
      }

      .st0, .st6 {
        opacity: .5;
      }

      .st1 {
        fill: #fdedf5;
        stroke: #c51983;
      }

      .st1, .st4 {
        stroke-width: 2px;
      }

      .st7 {
        fill: #f1b9d6;
      }

      .st8, .st9, .st10, .st6 {
        fill: #f9fcfc;
      }

      .st8, .st9, .st4 {
        stroke: #aaa2d0;
      }

      .st8, .st6 {
        stroke-miterlimit: 10;
        stroke-width: 1px;
      }

      .st9, .st10 {
        stroke-miterlimit: 10;
        stroke-width: 1px;
      }

      .st11 {
        fill: #8d86bc;
      }

      .st12 {
        fill: #d9d6ea;
      }

      .st10, .st6 {
        stroke: #eb76aa;
      }

      .st13, .st5 {
        fill: #2d2f44;
      }

      .st14 {
        fill: #c51983;
      }

      .st15 {
        fill: #aaa2d0;
      }

      .st3 {
        fill: #158bb6;
      }

      .st4 {
        fill: #e8e9f5;
      }

      .st16 {
        display: none;
      }

      .st17 {
        fill: #eb76aa;
      }

      .st5 {
        stroke: #f9fcfc;
      }
    </style>
  </defs>
  <g id="Calque_1" class="st16">
    <path class="st17" d="M133.85,145.05h0l60.6-33.94,34.11,60.9c33.47-18.74,45.33-61.2,26.49-94.84-18.84-33.64-61.24-45.71-94.7-26.97-33.47,18.74-45.33,61.2-26.49,94.84h0Z"/>
    <path class="st13" d="M186.21,83.99c15.54-4.42,31.83,4.14,36.39,19.13,4.56,14.98-4.35,30.71-19.89,35.14-15.54,4.42-31.83-4.14-36.39-19.13-4.56-14.98,4.35-30.71,19.89-35.14Z"/>
    <polygon class="st7" points="169.99 116.21 209.23 128.75 202.15 90.48 169.99 116.21"/>
    <path class="st3" d="M207.91,138.4l4.01,7.18"/>
    <path class="st0" d="M169.86,131.29l7.18-4.01"/>
    <path class="st5" d="M193.14,174.07c-22.83-.39-42.64-12.66-53.31-30.65l-5.29,2.95c18.4,32.96,59.87,44.84,92.64,26.55l-3.41-6.1c-9.09,4.79-19.54,7.44-30.64,7.25h0Z"/>
    <path class="st5" d="M192.99,174.88c11.28.16,21.9-2.55,31.16-7.43l-4.18-7.49c-7.96,4.53-17.18,7.07-26.96,6.95-19.81-.25-36.92-11.34-45.85-27.59l-8.28,4.62c10.81,18.21,30.92,30.6,54.11,30.93h0Z"/>
    <path class="st5" d="M193.13,158.66c-16.76-.21-31.23-9.6-38.78-23.35l-7.2,4.02c8.93,16.25,26.04,27.34,45.85,27.59,9.79.12,19-2.42,26.96-6.95l-4.02-7.2c-6.74,3.84-14.53,5.99-22.81,5.89h0Z"/>
    <path class="st5" d="M193.13,158.66c8.28.11,16.08-2.05,22.81-5.89l-4.01-7.18c-5.51,3.14-11.89,4.91-18.66,4.82-13.72-.17-25.55-7.86-31.73-19.11l-7.18,4.01c7.56,13.75,22.02,23.14,38.78,23.35h0Z"/>
    <path class="st5" d="M193.4,142.14c-10.67-.13-19.87-6.11-24.68-14.86l-7.18,4.01c6.18,11.26,18.02,18.93,31.73,19.11,6.78.09,13.15-1.68,18.66-4.82l-4.01-7.18c-4.28,2.44-9.24,3.82-14.52,3.75h0Z"/>
    <ellipse class="st10" cx="186.6" cy="53.96" rx="30.93" ry="11.08" transform="translate(-5.22 23.39) rotate(-7.07)"/>
    <path class="st17" d="M167.54,53.76c.7,3.34,5.72,5.11,11.21,3.96,2.64-.55,4.91-1.69,6.48-3.08,2.08,1.72,5.71,2.63,9.72,2.2,5.98-.65,10.51-4.06,10.13-7.6-.39-3.54-5.55-5.9-11.53-5.25-3.22.35-6.01,1.5-7.85,3.05-2.07-1.57-5.66-2.19-9.48-1.38-5.49,1.15-9.38,4.79-8.69,8.12h0Z"/>
    <ellipse class="st6" cx="194.43" cy="49.45" rx="6.31" ry="2.9" transform="translate(-2.76 12.52) rotate(-3.66)"/>
    <ellipse class="st6" cx="186.07" cy="51.04" rx="6.31" ry="3.05" transform="translate(-2.88 11.99) rotate(-3.66)"/>
    <rect class="st1" x="11.54" y="15.01" width="180" height="180"/>
    <g>
      <path class="st14" d="M52.39,113.46h-9.27c-.15,0-.28-.03-.41-.08-.12-.05-.23-.12-.32-.21-.09-.09-.16-.2-.21-.32-.05-.12-.08-.26-.08-.41v-10.18h2.03v9.17h8.26v2.03Z"/>
      <path class="st14" d="M62.74,107.81c0,.28-.05.58-.15.91-.1.33-.26.63-.48.91-.22.28-.51.51-.87.7-.36.19-.79.28-1.3.28h-3.66v-1.93h3.66c.28,0,.49-.08.64-.25.15-.17.23-.38.23-.63,0-.27-.08-.47-.25-.62-.17-.15-.37-.23-.61-.23h-3.66c-.28,0-.49.08-.64.25-.15.17-.23.38-.23.63v2.84c0,.27.08.48.25.63.17.15.38.23.63.23h3.65v1.94h-3.66c-.28,0-.58-.05-.91-.15-.33-.1-.63-.26-.91-.48-.28-.22-.51-.51-.7-.87-.19-.36-.28-.79-.28-1.3v-2.85c0-.28.05-.58.15-.91.1-.33.26-.63.48-.91.22-.28.51-.51.87-.7.36-.19.79-.28,1.3-.28h3.66c.28,0,.58.05.91.15.33.1.63.26.91.48.28.22.51.51.7.87.19.36.28.79.28,1.3Z"/>
      <path class="st14" d="M72.27,110.61c0,.35-.04.66-.13.94-.09.28-.21.52-.35.73-.15.21-.32.39-.51.54-.19.15-.39.27-.61.36s-.42.16-.64.21c-.22.04-.42.07-.61.07h-5.5v-2.03h5.48c.28,0,.48-.07.62-.21s.21-.34.21-.61c-.03-.54-.3-.81-.82-.81h-3.15c-.45,0-.83-.08-1.14-.23s-.57-.35-.76-.59-.34-.49-.42-.76c-.09-.27-.13-.52-.13-.76,0-.45.08-.83.24-1.14.16-.31.36-.56.61-.75.24-.19.51-.33.8-.42.29-.09.55-.13.8-.13h4.99v2.03h-4.98c-.1,0-.19.01-.25.04-.06.02-.1.05-.13.09-.03.04-.05.08-.05.12,0,.04,0,.09,0,.13,0,.08.02.15.05.2.03.05.06.08.1.1.04.02.08.03.13.04.05,0,.1,0,.14,0h3.15c.52,0,.96.09,1.33.28.36.19.66.42.88.71.22.28.39.59.49.93.1.33.15.64.15.93Z"/>
      <path class="st14" d="M89.16,113.46h-7.33c-.19,0-.39-.02-.61-.07-.22-.04-.43-.11-.64-.21s-.41-.21-.61-.36c-.19-.15-.36-.33-.51-.54s-.27-.46-.36-.73c-.09-.28-.13-.59-.13-.94v-5.5c0-.19.02-.39.07-.61.04-.22.11-.43.21-.64s.22-.41.37-.61c.15-.19.33-.36.54-.51s.45-.27.73-.36c.28-.09.59-.13.94-.13h7.33v2.03h-7.33c-.27,0-.47.07-.61.21s-.21.35-.21.62v5.48c0,.26.07.46.21.61.14.14.34.21.61.21h7.33v2.03Z"/>
      <path class="st14" d="M99.94,110.61c0,.35-.04.66-.13.94-.09.28-.21.52-.35.73-.15.21-.32.39-.51.54-.19.15-.39.27-.61.36s-.42.16-.64.21c-.22.04-.42.07-.61.07h-3.66c-.28,0-.59-.05-.92-.15-.33-.1-.64-.26-.93-.49-.28-.23-.52-.52-.71-.88-.19-.36-.29-.81-.29-1.33v-2.75c0-.52.09-.96.29-1.32.19-.36.43-.66.71-.88.28-.23.59-.39.93-.49.33-.1.64-.15.92-.15h3.66c.52,0,.96.09,1.33.28.36.19.66.42.88.71.22.28.39.59.49.93.1.33.15.64.15.93v2.75ZM97.91,107.87c0-.28-.07-.49-.21-.62-.14-.13-.34-.2-.61-.2h-3.65c-.27,0-.48.07-.62.21-.14.14-.21.34-.21.61v2.75c0,.27.07.47.21.61s.35.21.62.21h3.65c.28,0,.48-.07.62-.21.14-.14.2-.34.2-.61v-2.73Z"/>
      <path class="st14" d="M110.9,112.43c0,.15-.03.28-.08.41-.05.12-.12.23-.21.32-.09.09-.2.16-.32.21-.12.05-.25.08-.39.08h-4.59c-.25,0-.52-.03-.8-.09-.28-.06-.56-.15-.84-.28-.28-.13-.54-.29-.8-.48s-.48-.43-.68-.71c-.19-.28-.35-.6-.46-.96-.12-.36-.18-.78-.18-1.23v-4.69h2.03v4.69c0,.27.05.5.14.71.09.21.21.39.37.54.16.15.34.27.55.35.21.08.44.12.68.12h3.55v-6.41h2.03v7.42Z"/>
      <path class="st14" d="M116.52,113.46h-.91c-.29,0-.6-.05-.93-.15-.33-.1-.64-.26-.93-.49-.29-.23-.52-.52-.71-.88-.19-.36-.28-.81-.28-1.33v-9.16h2.03v9.16c0,.25.08.45.23.6s.35.22.59.22h.91v2.03Z"/>
      <path class="st14" d="M119.88,103.28h-2.03v-1.84h2.03v1.84ZM119.88,113.46h-2.03v-8.45h2.03v8.45Z"/>
      <path class="st14" d="M129.99,110.61c0,.35-.04.66-.13.94-.09.28-.21.52-.35.73-.15.21-.32.39-.51.54-.19.15-.39.27-.61.36s-.42.16-.64.21c-.22.04-.42.07-.61.07h-5.5v-2.03h5.48c.28,0,.48-.07.62-.21s.21-.34.21-.61c-.03-.54-.3-.81-.82-.81h-3.15c-.45,0-.83-.08-1.14-.23s-.57-.35-.76-.59-.34-.49-.42-.76c-.09-.27-.13-.52-.13-.76,0-.45.08-.83.24-1.14.16-.31.36-.56.61-.75.24-.19.51-.33.8-.42.29-.09.55-.13.8-.13h4.99v2.03h-4.98c-.1,0-.19.01-.25.04-.06.02-.1.05-.13.09-.03.04-.05.08-.05.12,0,.04,0,.09,0,.13,0,.08.02.15.05.2.03.05.06.08.1.1.04.02.08.03.13.04.05,0,.1,0,.14,0h3.15c.52,0,.96.09,1.33.28.36.19.66.42.88.71.22.28.39.59.49.93.1.33.15.64.15.93Z"/>
      <path class="st14" d="M139.58,110.61c0,.35-.04.66-.13.94-.09.28-.21.52-.35.73-.15.21-.32.39-.51.54-.19.15-.39.27-.61.36s-.42.16-.64.21c-.22.04-.42.07-.61.07h-5.5v-2.03h5.48c.28,0,.48-.07.62-.21s.21-.34.21-.61c-.03-.54-.3-.81-.82-.81h-3.15c-.45,0-.83-.08-1.14-.23s-.57-.35-.76-.59-.34-.49-.42-.76c-.09-.27-.13-.52-.13-.76,0-.45.08-.83.24-1.14.16-.31.36-.56.61-.75.24-.19.51-.33.8-.42.29-.09.55-.13.8-.13h4.99v2.03h-4.98c-.1,0-.19.01-.25.04-.06.02-.1.05-.13.09-.03.04-.05.08-.05.12,0,.04,0,.09,0,.13,0,.08.02.15.05.2.03.05.06.08.1.1.04.02.08.03.13.04.05,0,.1,0,.14,0h3.15c.52,0,.96.09,1.33.28.36.19.66.42.88.71.22.28.39.59.49.93.1.33.15.64.15.93Z"/>
      <path class="st14" d="M150.09,107.81c0,.28-.05.58-.15.91-.1.33-.26.63-.48.91-.22.28-.51.51-.87.7s-.79.28-1.3.28h-3.66v-1.93h3.66c.28,0,.49-.08.64-.25.15-.17.23-.38.23-.63,0-.27-.08-.47-.25-.62-.17-.15-.37-.23-.61-.23h-3.66c-.28,0-.49.08-.64.25-.15.17-.23.38-.23.63v2.84c0,.27.08.48.25.63.17.15.38.23.63.23h3.65v1.94h-3.66c-.28,0-.58-.05-.91-.15-.33-.1-.63-.26-.91-.48-.28-.22-.51-.51-.7-.87-.19-.36-.28-.79-.28-1.3v-2.85c0-.28.05-.58.15-.91.1-.33.26-.63.48-.91.22-.28.51-.51.87-.7.36-.19.79-.28,1.3-.28h3.66c.28,0,.58.05.91.15.33.1.63.26.91.48.28.22.51.51.7.87.19.36.28.79.28,1.3Z"/>
      <path class="st14" d="M159.62,110.61c0,.35-.04.66-.13.94-.09.28-.21.52-.35.73s-.32.39-.51.54-.39.27-.61.36-.42.16-.64.21c-.22.04-.42.07-.61.07h-5.5v-2.03h5.48c.28,0,.48-.07.62-.21s.21-.34.21-.61c-.03-.54-.3-.81-.82-.81h-3.15c-.45,0-.83-.08-1.14-.23s-.57-.35-.76-.59-.34-.49-.42-.76c-.09-.27-.13-.52-.13-.76,0-.45.08-.83.24-1.14.16-.31.36-.56.61-.75.25-.19.51-.33.8-.42s.55-.13.8-.13h4.99v2.03h-4.98c-.1,0-.19.01-.25.04s-.1.05-.13.09-.05.08-.05.12c0,.04,0,.09,0,.13,0,.08.02.15.05.2s.06.08.1.1c.04.02.08.03.13.04.05,0,.1,0,.14,0h3.15c.52,0,.96.09,1.33.28s.66.42.88.71c.22.28.39.59.49.93.1.33.15.64.15.93Z"/>
    </g>
  </g>
  <g id="Calque_2">
    <path class="st15" d="M130.51,136.92h0l62.26-34.04,34.22,62.57c34.38-18.8,46.94-62.06,28.04-96.62-18.9-34.56-62.09-47.33-96.47-28.53-34.38,18.8-46.94,62.06-28.04,96.62h0Z"/>
    <path class="st13" d="M184.62,75.07c15.92-4.35,32.48,4.56,36.98,19.92,4.5,15.36-4.76,31.33-20.69,35.69-15.92,4.35-32.48-4.56-36.98-19.92-4.5-15.36,4.76-31.33,20.69-35.69Z"/>
    <polygon class="st12" points="167.72 107.83 207.68 121.04 200.84 81.87 167.72 107.83"/>
    <path class="st3" d="M206.24,130.88l4.02,7.38"/>
    <path class="st2" d="M158.93,123.15l7.38-4.02"/>
    <path class="st5" d="M190.78,167.17c-23.31-.63-43.43-13.37-54.15-31.87l-5.43,2.96c18.45,33.86,60.71,46.42,94.37,28.08l-3.42-6.27c-9.33,4.8-20.04,7.4-31.37,7.09h0Z"/>
    <path class="st5" d="M190.61,168c11.52.28,22.4-2.37,31.91-7.27l-4.2-7.7c-8.18,4.55-17.62,7.05-27.62,6.83-20.24-.46-37.6-11.96-46.55-28.66l-8.5,4.64c10.85,18.72,31.27,31.58,54.96,32.16h0Z"/>
    <path class="st5" d="M190.92,151.43c-17.12-.39-31.8-10.13-39.38-24.26l-7.4,4.03c8.95,16.7,26.32,28.2,46.55,28.66,10,.23,19.44-2.28,27.62-6.83l-4.03-7.39c-6.92,3.85-14.9,5.97-23.37,5.78h0Z"/>
    <path class="st5" d="M190.92,151.43c8.46.19,16.45-1.93,23.37-5.78l-4.02-7.38c-5.66,3.15-12.19,4.89-19.12,4.73-14.01-.32-26.02-8.29-32.22-19.85l-7.38,4.02c7.58,14.13,22.26,23.87,39.38,24.26h0Z"/>
    <path class="st5" d="M191.37,134.56c-10.89-.24-20.24-6.44-25.06-15.44l-7.38,4.02c6.2,11.56,18.21,19.53,32.22,19.85,6.92.16,13.45-1.58,19.12-4.73l-4.02-7.38c-4.4,2.45-9.48,3.8-14.87,3.68h0Z"/>
    <ellipse class="st9" cx="185.33" cy="44.4" rx="31.6" ry="11.32" transform="translate(-3.83 21.25) rotate(-6.49)"/>
    <path class="st15" d="M165.87,43.99c.68,3.42,5.79,5.28,11.42,4.16,2.71-.54,5.04-1.67,6.65-3.08,2.11,1.77,5.81,2.75,9.9,2.34,6.11-.6,10.78-4.04,10.43-7.66-.36-3.63-5.61-6.08-11.72-5.48-3.29.32-6.16,1.47-8.05,3.03-2.1-1.62-5.76-2.29-9.67-1.51-5.62,1.12-9.64,4.8-8.96,8.21h0Z"/>
    <ellipse class="st8" cx="193.38" cy="39.87" rx="6.45" ry="2.97" transform="translate(-1.86 10.46) rotate(-3.08)"/>
    <ellipse class="st8" cx="176.32" cy="41.32" rx="6.45" ry="3.12" transform="translate(-1.97 9.55) rotate(-3.08)"/>
    <rect class="st4" x="12.74" y="11.82" width="180" height="180"/>
    <g>
      <path class="st11" d="M41.21,102.81c0,.49-.06.95-.19,1.38-.13.43-.31.82-.55,1.18-.24.35-.52.66-.86.92s-.71.47-1.12.62l2.23,1.76h-2.76l-1.83-1.47h-1.88c-.63,0-1.21-.11-1.75-.33s-1-.52-1.39-.91c-.39-.39-.7-.85-.92-1.39s-.33-1.13-.33-1.77v-2.01c0-.63.11-1.22.33-1.76.22-.54.53-1,.92-1.39.39-.39.85-.69,1.39-.91s1.12-.33,1.75-.33h2.58c.63,0,1.21.11,1.75.33.53.22,1,.52,1.39.91.39.39.7.85.92,1.39.22.54.33,1.13.33,1.76v2.01ZM39.3,100.8c0-.38-.06-.72-.18-1.02s-.29-.57-.5-.78c-.22-.22-.48-.39-.78-.5s-.64-.18-1.01-.18h-2.58c-.37,0-.71.06-1.01.18s-.57.29-.79.5c-.22.22-.39.48-.51.78-.12.31-.18.65-.18,1.02v2.01c0,.38.06.72.18,1.02.12.31.29.57.51.78s.48.39.79.5c.31.12.64.18,1.01.18h2.56c.37,0,.71-.06,1.01-.18.3-.12.57-.29.79-.5s.39-.48.51-.78c.12-.3.18-.65.18-1.02v-2.01Z"/>
      <path class="st11" d="M51.54,106.1c0,.14-.02.26-.07.38s-.12.22-.2.3c-.09.08-.19.15-.3.2s-.24.07-.37.07h-4.31c-.23,0-.48-.03-.75-.08-.27-.05-.53-.14-.79-.26-.26-.12-.51-.27-.75-.45-.24-.18-.45-.4-.63-.67s-.33-.56-.44-.9c-.11-.34-.17-.73-.17-1.16v-4.39h1.9v4.39c0,.25.04.47.13.67.09.2.2.37.35.51s.32.25.52.33c.2.08.41.11.64.11h3.33v-6.01h1.9v6.96Z"/>
      <path class="st11" d="M55.26,97.51h-1.9v-1.72h1.9v1.72ZM55.26,107.06h-1.9v-7.92h1.9v7.92Z"/>
      <path class="st11" d="M69.61,104.38c0,.33-.04.62-.12.88-.08.26-.19.49-.33.69-.14.2-.3.37-.48.51-.18.14-.37.25-.57.34-.2.09-.4.15-.6.19-.2.04-.39.06-.58.06h-5.16v-1.9h5.14c.26,0,.45-.07.59-.2s.2-.32.2-.57c-.02-.51-.28-.76-.77-.76h-2.95c-.42,0-.78-.07-1.07-.22s-.53-.33-.71-.55c-.18-.22-.31-.46-.4-.71-.08-.25-.12-.49-.12-.71,0-.42.08-.78.23-1.07.15-.29.34-.53.57-.71s.48-.31.75-.39c.27-.08.52-.12.75-.12h4.68v1.9h-4.67c-.1,0-.17.01-.23.03-.06.02-.1.05-.12.09-.03.04-.04.08-.05.12,0,.04,0,.08,0,.12,0,.08.02.14.04.18s.06.08.09.1c.04.02.08.03.12.03.05,0,.09,0,.14,0h2.95c.49,0,.9.09,1.25.26s.62.4.83.66c.21.27.36.56.46.87.1.31.14.6.14.87Z"/>
      <path class="st11" d="M79.56,104.38c0,.33-.04.62-.12.88-.08.26-.19.49-.33.69-.14.2-.3.37-.48.51-.18.14-.37.25-.57.34-.2.09-.4.15-.6.19-.2.04-.39.06-.57.06h-3.44c-.26,0-.55-.05-.86-.14s-.6-.25-.87-.46c-.27-.21-.49-.49-.67-.83-.18-.34-.27-.76-.27-1.25v-2.58c0-.49.09-.9.27-1.24.18-.34.4-.62.67-.83.27-.21.56-.37.87-.46s.6-.14.86-.14h3.44c.49,0,.9.09,1.25.26s.62.4.83.66c.21.27.36.56.46.87.09.31.14.6.14.87v2.58ZM77.65,101.82c0-.26-.07-.46-.2-.59s-.32-.19-.57-.19h-3.42c-.25,0-.45.06-.58.19-.13.13-.2.32-.2.57v2.58c0,.25.07.44.2.57s.32.2.58.2h3.42c.26,0,.45-.07.58-.2s.19-.32.19-.57v-2.56Z"/>
      <path class="st11" d="M88.24,107.06h-1.9v-5.25c0-.25-.07-.44-.2-.57-.13-.13-.33-.19-.59-.19h-2.48v6.01h-1.9v-6.97c0-.13.02-.25.07-.37.05-.11.12-.21.21-.3s.19-.15.31-.2.24-.07.37-.07h3.44c.26,0,.55.05.85.14s.59.24.86.45v-.59h2.58c.18,0,.37.02.57.06.2.04.4.11.6.19.2.09.39.2.57.34.18.14.34.31.48.5.14.2.25.43.33.69s.12.55.12.88v5.25h-1.9v-5.25c0-.25-.06-.44-.19-.57-.12-.13-.32-.19-.58-.19h-1.71c.06.23.1.49.1.76v5.25Z"/>
      <path class="st11" d="M101.35,107.06h-1.9v-5.25c0-.25-.07-.44-.2-.57-.13-.13-.33-.19-.59-.19h-2.48v6.01h-1.9v-6.97c0-.13.02-.25.07-.37.05-.11.12-.21.21-.3s.19-.15.31-.2.24-.07.37-.07h3.44c.26,0,.55.05.85.14s.59.24.86.45v-.59h2.58c.18,0,.37.02.57.06.2.04.4.11.6.19.2.09.39.2.57.34.18.14.34.31.48.5.14.2.25.43.33.69s.12.55.12.88v5.25h-1.9v-5.25c0-.25-.06-.44-.19-.57-.12-.13-.32-.19-.58-.19h-1.71c.06.23.1.49.1.76v5.25Z"/>
      <path class="st11" d="M115.9,101.76c0,.26-.05.55-.14.85-.09.31-.24.59-.45.85-.21.26-.48.48-.81.66s-.74.26-1.22.26h-3.44v-1.81h3.44c.26,0,.46-.08.6-.24.14-.16.21-.35.21-.59,0-.25-.08-.44-.24-.59s-.35-.21-.57-.21h-3.44c-.26,0-.46.08-.6.24s-.21.35-.21.59v2.66c0,.25.08.45.24.59s.36.21.59.21h3.42v1.82h-3.44c-.26,0-.55-.05-.85-.14s-.59-.24-.85-.45c-.26-.21-.48-.48-.66-.81-.18-.33-.26-.74-.26-1.22v-2.67c0-.26.05-.55.14-.85s.24-.59.45-.85c.21-.26.48-.48.81-.66s.74-.26,1.22-.26h3.44c.26,0,.55.05.85.14s.59.24.85.45c.26.21.48.48.66.81s.26.74.26,1.22Z"/>
      <path class="st11" d="M124.84,104.38c0,.33-.04.62-.12.88-.08.26-.19.49-.33.69-.14.2-.3.37-.48.51-.18.14-.37.25-.57.34-.2.09-.4.15-.6.19-.2.04-.39.06-.58.06h-5.16v-1.9h5.14c.26,0,.45-.07.59-.2s.2-.32.2-.57c-.02-.51-.28-.76-.77-.76h-2.95c-.42,0-.78-.07-1.07-.22s-.53-.33-.71-.55c-.18-.22-.31-.46-.4-.71-.08-.25-.12-.49-.12-.71,0-.42.08-.78.23-1.07.15-.29.34-.53.57-.71s.48-.31.75-.39c.27-.08.52-.12.75-.12h4.68v1.9h-4.67c-.1,0-.17.01-.23.03-.06.02-.1.05-.12.09-.03.04-.04.08-.05.12,0,.04,0,.08,0,.12,0,.08.02.14.04.18s.06.08.09.1c.04.02.08.03.12.03.05,0,.09,0,.14,0h2.95c.49,0,.9.09,1.25.26s.62.4.83.66c.21.27.36.56.46.87.1.31.14.6.14.87Z"/>
      <path class="st11" d="M132.94,102.66h-6.87v-1.71h6.87v1.71Z"/>
      <path class="st11" d="M143.45,107.06h-1.9v-4.39c0-.25-.04-.47-.13-.67-.09-.2-.2-.37-.35-.51s-.32-.25-.52-.33c-.2-.08-.41-.11-.64-.11h-3.33v6.01h-1.9v-6.97c0-.13.02-.25.07-.37.05-.11.12-.21.21-.3s.19-.15.31-.2.24-.07.37-.07h4.29c.24,0,.49.03.76.08.27.05.53.14.79.26.26.12.51.27.75.45.24.18.45.41.63.67.18.26.33.56.44.9s.16.73.16,1.16v4.39Z"/>
      <path class="st11" d="M153.74,104.38c0,.33-.04.62-.12.88-.08.26-.19.49-.33.69-.14.2-.3.37-.48.51-.18.14-.37.25-.57.34-.2.09-.4.15-.6.19-.2.04-.39.06-.58.06h-3.43c-.26,0-.55-.05-.86-.14s-.6-.25-.87-.46c-.27-.21-.49-.49-.67-.83-.18-.34-.27-.76-.27-1.25v-2.58c0-.49.09-.9.27-1.24.18-.34.4-.62.67-.83.27-.21.56-.37.87-.46s.6-.14.86-.14h3.43c.49,0,.9.09,1.25.26s.62.4.83.66c.21.27.36.56.46.87.09.31.14.6.14.87v2.58ZM151.83,101.82c0-.26-.07-.46-.2-.59s-.32-.19-.57-.19h-3.42c-.25,0-.45.06-.58.19-.13.13-.2.32-.2.57v2.58c0,.25.07.44.2.57s.33.2.58.2h3.42c.26,0,.45-.07.58-.2s.19-.32.19-.57v-2.56Z"/>
      <path class="st11" d="M164.01,106.1c0,.14-.02.26-.07.38s-.12.22-.2.3c-.09.08-.19.15-.3.2-.11.05-.24.07-.37.07h-4.31c-.23,0-.49-.03-.75-.08-.27-.05-.53-.14-.79-.26-.26-.12-.51-.27-.75-.45-.24-.18-.45-.4-.63-.67s-.33-.56-.44-.9c-.11-.34-.17-.73-.17-1.16v-4.39h1.9v4.39c0,.25.04.47.13.67.09.2.2.37.35.51s.32.25.52.33c.2.08.41.11.64.11h3.33v-6.01h1.9v6.96Z"/>
      <path class="st11" d="M173.45,104.38c0,.33-.04.62-.12.88-.08.26-.19.49-.33.69-.14.2-.3.37-.48.51-.18.14-.37.25-.57.34-.2.09-.4.15-.6.19-.2.04-.39.06-.58.06h-5.16v-1.9h5.14c.26,0,.45-.07.59-.2s.2-.32.2-.57c-.02-.51-.28-.76-.77-.76h-2.95c-.42,0-.78-.07-1.07-.22s-.53-.33-.71-.55c-.18-.22-.31-.46-.4-.71-.08-.25-.12-.49-.12-.71,0-.42.08-.78.23-1.07.15-.29.34-.53.57-.71s.48-.31.75-.39c.27-.08.52-.12.75-.12h4.68v1.9h-4.67c-.1,0-.17.01-.23.03-.06.02-.1.05-.12.09-.03.04-.04.08-.05.12,0,.04,0,.08,0,.12,0,.08.02.14.04.18s.05.08.09.1c.04.02.08.03.12.03.05,0,.09,0,.14,0h2.95c.49,0,.9.09,1.25.26s.62.4.83.66c.21.27.36.56.46.87.1.31.14.6.14.87Z"/>
      <path class="st11" d="M183.02,100.08c0,.27-.05.56-.14.87s-.25.6-.46.87c-.21.27-.49.49-.83.67-.34.18-.75.27-1.24.27h-1.62v1.71h-1.91v-2.67c0-.13.02-.25.07-.37s.12-.22.2-.3c.08-.09.19-.16.3-.21.12-.05.24-.08.37-.08h2.59c.25,0,.44-.06.57-.19.13-.13.19-.32.19-.57v-.86c0-.25-.06-.44-.19-.57s-.32-.2-.57-.2h-6.11v-1.9h6.11c.27,0,.56.05.87.14.31.1.6.25.87.46.27.21.49.49.66.83s.26.76.26,1.25v.86ZM178.71,106.1c0,.13-.02.26-.07.37-.05.12-.12.21-.2.3s-.19.15-.3.2c-.12.05-.24.07-.37.07s-.25-.02-.36-.07c-.12-.05-.21-.12-.3-.2-.08-.09-.15-.19-.21-.3-.05-.11-.08-.24-.08-.37s.03-.25.08-.36c.05-.11.12-.21.21-.3.09-.09.19-.15.3-.21.11-.05.24-.08.36-.08s.25.03.37.08c.11.05.21.12.3.21.09.09.15.19.2.3.05.12.07.24.07.36Z"/>
    </g>
  </g>
</svg>